# This file uses centimeters as units for non-parametric coordinates.

mtllib houseroof.mtl
g default
v -3.999999 6.028680 -4.000000
v -4.000000 6.028680 4.000000
v 4.000000 6.028680 4.000000
v 4.000000 6.028680 -4.000000
v 0.000000 10.271320 0.000000
vt 0.791193 -0.002986
vt 0.589242 0.198966
vt 0.791193 0.400918
vt 0.993145 0.198966
vt 0.614547 0.612379
vt 0.708874 0.612379
vt 0.803201 0.612379
vt 0.897529 0.612379
vt 0.991856 0.612379
vt 0.803201 0.989688
vn 0.000000 -1.000000 0.000000
vn 0.000000 -1.000000 -0.000000
vn 0.000000 -1.000000 -0.000000
vn 0.000000 -1.000000 -0.000000
vn -0.727607 0.685994 -0.000000
vn -0.727607 0.685994 -0.000000
vn -0.727607 0.685994 -0.000000
vn -0.000000 0.685994 0.727607
vn -0.000000 0.685994 0.727607
vn -0.000000 0.685994 0.727607
vn 0.727607 0.685994 0.000000
vn 0.727607 0.685994 0.000000
vn 0.727607 0.685994 0.000000
vn 0.000000 0.685995 -0.727607
vn 0.000000 0.685995 -0.727607
vn 0.000000 0.685995 -0.727607
s 1
g pPyramid3
usemtl lambert3SG
f 1/1/1 4/4/2 2/2/3
f 2/2/3 4/4/2 3/3/4
s off
f 1/5/5 2/6/6 5/10/7
f 2/6/8 3/7/9 5/10/10
f 3/7/11 4/8/12 5/10/13
f 4/8/14 1/9/15 5/10/16
