# This file uses centimeters as units for non-parametric coordinates.

mtllib housedoor.mtl
g default
v -1.000000 0.000000 2.750000
v 1.000000 0.000000 2.750000
v -1.000000 4.000000 2.750000
v 1.000000 4.000000 2.750000
v -1.000000 4.000000 2.250000
v 1.000000 4.000000 2.250000
v -1.000000 0.000000 2.250000
v 1.000000 0.000000 2.250000
vt 0.100644 0.097550
vt 0.100644 0.290043
vt 0.196890 0.290043
vt 0.196890 0.386289
vt 0.293136 0.097550
vt 0.004397 0.001304
vt 0.004397 0.097550
vt 0.100644 0.001304
vt 0.100644 0.386289
vt 0.100644 0.193797
vt 0.293136 0.001304
vt 0.196890 0.097550
vt 0.196890 0.193797
vt 0.196890 0.001304
vn 0.000000 0.000000 1.000000
vn 0.000000 0.000000 1.000000
vn 0.000000 0.000000 1.000000
vn 0.000000 0.000000 1.000000
vn 0.000000 1.000000 0.000000
vn 0.000000 1.000000 0.000000
vn 0.000000 1.000000 0.000000
vn 0.000000 1.000000 0.000000
vn 0.000000 0.000000 -1.000000
vn 0.000000 0.000000 -1.000000
vn 0.000000 0.000000 -1.000000
vn 0.000000 0.000000 -1.000000
vn 0.000000 -1.000000 0.000000
vn 0.000000 -1.000000 0.000000
vn 0.000000 -1.000000 0.000000
vn 0.000000 -1.000000 0.000000
vn 1.000000 0.000000 0.000000
vn 1.000000 0.000000 0.000000
vn 1.000000 0.000000 0.000000
vn 1.000000 0.000000 0.000000
vn -1.000000 0.000000 0.000000
vn -1.000000 0.000000 0.000000
vn -1.000000 0.000000 0.000000
vn -1.000000 0.000000 0.000000
s 1
g pCube90
usemtl lambert3SG
f 1/8/1 2/14/2 3/1/3
f 3/1/3 2/14/2 4/12/4
s 2
f 3/1/5 4/12/6 5/10/7
f 5/10/7 4/12/6 6/13/8
s 3
f 5/10/9 6/13/10 7/2/11
f 7/2/11 6/13/10 8/3/12
s 4
f 7/2/13 8/3/14 1/9/15
f 1/9/15 8/3/14 2/4/16
s 5
f 2/14/17 8/11/18 4/12/19
f 4/12/19 8/11/18 6/5/20
s 6
f 7/6/21 1/8/22 5/7/23
f 5/7/23 1/8/22 3/1/24
