# This file uses centimeters as units for non-parametric coordinates.

mtllib humanlow.mtl
g default
v 0.098111 -1.863060 0.154838
v 0.470628 -1.863060 0.154838
v 0.098111 0.003850 0.154838
v 0.470628 0.003850 0.154838
v 0.098111 0.003850 -0.280418
v 0.470628 0.003850 -0.280418
v 0.098111 -1.863060 -0.280418
v 0.470628 -1.863060 -0.280418
v -0.381105 -1.863060 0.154838
v -0.008588 -1.863060 0.154838
v -0.381105 0.003850 0.154838
v -0.008588 0.003850 0.154838
v -0.381105 0.003850 -0.280418
v -0.008588 0.003850 -0.280418
v -0.381105 -1.863060 -0.280418
v -0.008588 -1.863060 -0.280418
v -0.342699 0.007516 0.320139
v 0.394272 0.007516 0.320139
v -0.342699 1.367872 0.320139
v 0.394272 1.367872 0.320139
v -0.342699 1.367872 -0.320139
v 0.394272 1.367872 -0.320139
v -0.342699 0.007516 -0.320139
v 0.394272 0.007516 -0.320139
v 0.865678 0.023911 0.137285
v 1.107122 0.154103 0.137285
v 0.220028 1.221285 0.137285
v 0.461472 1.351477 0.137285
v 0.220028 1.221285 -0.158193
v 0.461472 1.351477 -0.158193
v 0.865678 0.023911 -0.158193
v 1.107122 0.154103 -0.158193
v -1.107122 0.160670 0.137285
v -0.867615 0.026949 0.137285
v -0.443969 1.348440 0.137285
v -0.204462 1.214718 0.137285
v -0.443969 1.348440 -0.158193
v -0.204462 1.214718 -0.158193
v -1.107122 0.160670 -0.158193
v -0.867615 0.026949 -0.158193
v 0.099610 1.372970 -0.023987
v 0.088584 1.372970 -0.045625
v 0.071412 1.372970 -0.062798
v 0.049773 1.372970 -0.073824
v 0.025786 1.372970 -0.077623
v 0.001799 1.372970 -0.073824
v -0.019839 1.372970 -0.062798
v -0.037012 1.372970 -0.045625
v -0.048037 1.372970 -0.023987
v -0.051836 1.372970 0.000000
v -0.048037 1.372970 0.023987
v -0.037012 1.372970 0.045625
v -0.019839 1.372970 0.062798
v 0.001799 1.372970 0.073824
v 0.025786 1.372970 0.077623
v 0.049773 1.372970 0.073824
v 0.071412 1.372970 0.062798
v 0.088584 1.372970 0.045625
v 0.099610 1.372970 0.023987
v 0.103409 1.372970 0.000000
v 0.219059 1.464221 -0.062798
v 0.190194 1.464221 -0.119449
v 0.145235 1.464221 -0.164408
v 0.088584 1.464221 -0.193273
v 0.025786 1.464221 -0.203219
v -0.037012 1.464221 -0.193273
v -0.093663 1.464221 -0.164407
v -0.138621 1.464221 -0.119449
v -0.167486 1.464221 -0.062798
v -0.177433 1.464221 0.000000
v -0.167486 1.464221 0.062798
v -0.138621 1.464221 0.119449
v -0.093663 1.464221 0.164407
v -0.037012 1.464221 0.193273
v 0.025786 1.464221 0.203219
v 0.088584 1.464221 0.193273
v 0.145235 1.464221 0.164407
v 0.190194 1.464221 0.119449
v 0.219059 1.464221 0.062798
v 0.229005 1.464221 0.000000
v 0.264684 1.611868 -0.077623
v 0.229005 1.611868 -0.147647
v 0.173433 1.611868 -0.203219
v 0.103409 1.611868 -0.238898
v 0.025786 1.611868 -0.251192
v -0.051836 1.611868 -0.238898
v -0.121861 1.611868 -0.203219
v -0.177433 1.611868 -0.147647
v -0.213112 1.611868 -0.077623
v -0.225406 1.611868 0.000000
v -0.213112 1.611868 0.077623
v -0.177433 1.611868 0.147647
v -0.121861 1.611868 0.203219
v -0.051836 1.611868 0.238898
v 0.025786 1.611868 0.251192
v 0.103409 1.611868 0.238898
v 0.173433 1.611868 0.203219
v 0.229005 1.611868 0.147647
v 0.264684 1.611868 0.077623
v 0.276978 1.611868 0.000000
v 0.219059 1.759515 -0.062798
v 0.190194 1.759515 -0.119449
v 0.145235 1.759515 -0.164408
v 0.088584 1.759515 -0.193273
v 0.025786 1.759515 -0.203219
v -0.037012 1.759515 -0.193273
v -0.093663 1.759515 -0.164407
v -0.138621 1.759515 -0.119449
v -0.167486 1.759515 -0.062798
v -0.177433 1.759515 0.000000
v -0.167486 1.759515 0.062798
v -0.138621 1.759515 0.119449
v -0.093663 1.759515 0.164407
v -0.037012 1.759515 0.193273
v 0.025786 1.759515 0.203219
v 0.088584 1.759515 0.193273
v 0.145235 1.759515 0.164407
v 0.190194 1.759515 0.119449
v 0.219059 1.759515 0.062798
v 0.229005 1.759515 0.000000
v 0.025786 1.360675 0.000000
v 0.025786 1.863060 0.000000
vt 0.705938 0.627653
vt 0.798192 0.627653
vt 0.705938 0.719906
vt 0.798192 0.719906
vt 0.705938 0.812160
vt 0.798192 0.812160
vt 0.705938 0.904413
vt 0.798192 0.904413
vt 0.705938 0.996667
vt 0.798192 0.996667
vt 0.890445 0.627653
vt 0.890445 0.719906
vt 0.613684 0.627653
vt 0.613684 0.719906
vt 0.705938 0.627653
vt 0.798192 0.627653
vt 0.798192 0.719906
vt 0.705938 0.719906
vt 0.798192 0.812160
vt 0.705938 0.812160
vt 0.798192 0.904413
vt 0.705938 0.904413
vt 0.798192 0.996667
vt 0.705938 0.996667
vt 0.890445 0.627653
vt 0.890445 0.719906
vt 0.613684 0.627653
vt 0.613684 0.719906
vt 0.104780 0.104326
vt 0.200790 0.104326
vt 0.200790 0.200336
vt 0.104780 0.200336
vt 0.200790 0.296345
vt 0.104780 0.296345
vt 0.200790 0.392354
vt 0.104780 0.392354
vt 0.200790 0.488364
vt 0.104780 0.488364
vt 0.296799 0.104326
vt 0.296799 0.200336
vt 0.008771 0.104326
vt 0.008771 0.200336
vt 0.699782 0.100570
vt 0.797670 0.100570
vt 0.797670 0.198458
vt 0.699782 0.198458
vt 0.797670 0.296345
vt 0.699782 0.296345
vt 0.797670 0.394232
vt 0.699782 0.394232
vt 0.797670 0.492120
vt 0.699782 0.492120
vt 0.895557 0.100570
vt 0.895557 0.198458
vt 0.601895 0.100570
vt 0.601895 0.198458
vt 0.699782 0.100570
vt 0.797670 0.100570
vt 0.797670 0.198458
vt 0.699782 0.198458
vt 0.797670 0.296345
vt 0.699782 0.296345
vt 0.797670 0.394232
vt 0.699782 0.394232
vt 0.797670 0.492120
vt 0.699782 0.492120
vt 0.895557 0.100570
vt 0.895557 0.198458
vt 0.601895 0.100570
vt 0.601895 0.198458
vt 0.006253 0.820466
vt 0.016065 0.820466
vt 0.016065 0.859715
vt 0.006253 0.859715
vt 0.025878 0.820466
vt 0.025878 0.859715
vt 0.035690 0.820466
vt 0.035690 0.859715
vt 0.045502 0.820466
vt 0.045502 0.859715
vt 0.055314 0.820466
vt 0.055314 0.859715
vt 0.065126 0.820466
vt 0.065126 0.859715
vt 0.074939 0.820466
vt 0.074939 0.859715
vt 0.084751 0.820466
vt 0.084751 0.859715
vt 0.094563 0.820466
vt 0.094563 0.859715
vt 0.104375 0.820466
vt 0.104375 0.859715
vt 0.114187 0.820466
vt 0.114187 0.859715
vt 0.124000 0.820466
vt 0.124000 0.859715
vt 0.133812 0.820466
vt 0.133812 0.859715
vt 0.143624 0.820466
vt 0.143624 0.859715
vt 0.153436 0.820466
vt 0.153436 0.859715
vt 0.163248 0.820466
vt 0.163248 0.859715
vt 0.173061 0.820466
vt 0.173061 0.859715
vt 0.182873 0.820466
vt 0.182873 0.859715
vt 0.192685 0.820466
vt 0.192685 0.859715
vt 0.202497 0.820466
vt 0.202497 0.859715
vt 0.016065 0.898964
vt 0.006253 0.898964
vt 0.025878 0.898964
vt 0.035690 0.898964
vt 0.045502 0.898964
vt 0.055314 0.898964
vt 0.065126 0.898964
vt 0.074939 0.898964
vt 0.084751 0.898964
vt 0.094563 0.898964
vt 0.104375 0.898964
vt 0.114187 0.898964
vt 0.124000 0.898964
vt 0.133812 0.898964
vt 0.143624 0.898964
vt 0.153436 0.898964
vt 0.163248 0.898964
vt 0.173061 0.898964
vt 0.182873 0.898964
vt 0.192685 0.898964
vt 0.202497 0.898964
vt 0.016065 0.938212
vt 0.006253 0.938212
vt 0.025878 0.938212
vt 0.035690 0.938212
vt 0.045502 0.938212
vt 0.055314 0.938212
vt 0.065126 0.938212
vt 0.074939 0.938212
vt 0.084751 0.938212
vt 0.094563 0.938212
vt 0.104375 0.938212
vt 0.114187 0.938212
vt 0.124000 0.938212
vt 0.133812 0.938212
vt 0.143624 0.938212
vt 0.153436 0.938212
vt 0.163248 0.938212
vt 0.173061 0.938212
vt 0.182873 0.938212
vt 0.192685 0.938212
vt 0.202497 0.938212
vt 0.011159 0.800841
vt 0.020971 0.800841
vt 0.030784 0.800841
vt 0.040596 0.800841
vt 0.050408 0.800841
vt 0.060220 0.800841
vt 0.070032 0.800841
vt 0.079845 0.800841
vt 0.089657 0.800841
vt 0.099469 0.800841
vt 0.109281 0.800841
vt 0.119093 0.800841
vt 0.128906 0.800841
vt 0.138718 0.800841
vt 0.148530 0.800841
vt 0.158342 0.800841
vt 0.168155 0.800841
vt 0.177967 0.800841
vt 0.187779 0.800841
vt 0.197591 0.800841
vt 0.011159 0.997086
vt 0.020971 0.997086
vt 0.030784 0.997086
vt 0.040596 0.997086
vt 0.050408 0.997086
vt 0.060220 0.997086
vt 0.070032 0.997086
vt 0.079845 0.997086
vt 0.089657 0.997086
vt 0.099469 0.997086
vt 0.109281 0.997086
vt 0.119093 0.997086
vt 0.128906 0.997086
vt 0.138718 0.997086
vt 0.148530 0.997086
vt 0.158342 0.997086
vt 0.168155 0.997086
vt 0.177967 0.997086
vt 0.187779 0.997086
vt 0.197591 0.997086
vn 0.000000 0.000000 1.000000
vn 0.000000 0.000000 1.000000
vn 0.000000 0.000000 1.000000
vn 0.000000 0.000000 1.000000
vn 0.000000 1.000000 0.000000
vn 0.000000 1.000000 0.000000
vn 0.000000 1.000000 0.000000
vn 0.000000 1.000000 0.000000
vn 0.000000 0.000000 -1.000000
vn 0.000000 0.000000 -1.000000
vn 0.000000 0.000000 -1.000000
vn 0.000000 0.000000 -1.000000
vn 0.000000 -1.000000 0.000000
vn 0.000000 -1.000000 0.000000
vn 0.000000 -1.000000 0.000000
vn 0.000000 -1.000000 0.000000
vn 1.000000 0.000000 0.000000
vn 1.000000 0.000000 0.000000
vn 1.000000 0.000000 0.000000
vn 1.000000 0.000000 0.000000
vn -1.000000 0.000000 0.000000
vn -1.000000 0.000000 0.000000
vn -1.000000 0.000000 0.000000
vn -1.000000 0.000000 0.000000
vn 0.000000 0.000000 1.000000
vn 0.000000 0.000000 1.000000
vn 0.000000 0.000000 1.000000
vn 0.000000 0.000000 1.000000
vn 0.000000 1.000000 0.000000
vn 0.000000 1.000000 0.000000
vn 0.000000 1.000000 0.000000
vn 0.000000 1.000000 0.000000
vn 0.000000 0.000000 -1.000000
vn 0.000000 0.000000 -1.000000
vn 0.000000 0.000000 -1.000000
vn 0.000000 0.000000 -1.000000
vn 0.000000 -1.000000 0.000000
vn 0.000000 -1.000000 0.000000
vn 0.000000 -1.000000 0.000000
vn 0.000000 -1.000000 0.000000
vn 1.000000 0.000000 0.000000
vn 1.000000 0.000000 0.000000
vn 1.000000 0.000000 0.000000
vn 1.000000 0.000000 0.000000
vn -1.000000 0.000000 0.000000
vn -1.000000 0.000000 0.000000
vn -1.000000 0.000000 0.000000
vn -1.000000 0.000000 0.000000
vn 0.000000 0.000000 1.000000
vn 0.000000 0.000000 1.000000
vn 0.000000 0.000000 1.000000
vn 0.000000 0.000000 1.000000
vn 0.000000 1.000000 0.000000
vn 0.000000 1.000000 0.000000
vn 0.000000 1.000000 0.000000
vn 0.000000 1.000000 0.000000
vn 0.000000 0.000000 -1.000000
vn 0.000000 0.000000 -1.000000
vn 0.000000 0.000000 -1.000000
vn 0.000000 0.000000 -1.000000
vn 0.000000 -1.000000 0.000000
vn 0.000000 -1.000000 0.000000
vn 0.000000 -1.000000 0.000000
vn 0.000000 -1.000000 0.000000
vn 1.000000 0.000000 0.000000
vn 1.000000 0.000000 0.000000
vn 1.000000 0.000000 0.000000
vn 1.000000 0.000000 0.000000
vn -1.000000 0.000000 0.000000
vn -1.000000 0.000000 0.000000
vn -1.000000 0.000000 0.000000
vn -1.000000 0.000000 0.000000
vn 0.000000 0.000000 1.000000
vn -0.000000 0.000000 1.000000
vn -0.000000 0.000000 1.000000
vn -0.000000 0.000000 1.000000
vn -0.474619 0.880191 0.000000
vn -0.474619 0.880191 0.000000
vn -0.474619 0.880191 0.000000
vn -0.474619 0.880191 0.000000
vn -0.000000 0.000000 -1.000000
vn -0.000000 0.000000 -1.000000
vn 0.000000 0.000000 -1.000000
vn 0.000000 0.000000 -1.000000
vn 0.474619 -0.880191 0.000000
vn 0.474619 -0.880191 0.000000
vn 0.474619 -0.880191 0.000000
vn 0.474619 -0.880192 0.000000
vn 0.880192 0.474619 0.000000
vn 0.880192 0.474619 0.000000
vn 0.880192 0.474619 0.000000
vn 0.880192 0.474619 0.000000
vn -0.880192 -0.474619 0.000000
vn -0.880191 -0.474619 0.000000
vn -0.880191 -0.474619 0.000000
vn -0.880192 -0.474619 0.000000
vn 0.000000 0.000000 1.000000
vn 0.000000 0.000000 1.000000
vn -0.000000 0.000000 1.000000
vn -0.000000 0.000000 1.000000
vn 0.487485 0.873131 0.000000
vn 0.487485 0.873131 0.000000
vn 0.487485 0.873131 0.000000
vn 0.487485 0.873131 0.000000
vn 0.000000 0.000000 -1.000000
vn 0.000000 0.000000 -1.000000
vn 0.000000 0.000000 -1.000000
vn 0.000000 0.000000 -1.000000
vn -0.487485 -0.873132 0.000000
vn -0.487485 -0.873131 0.000000
vn -0.487485 -0.873131 0.000000
vn -0.487485 -0.873131 0.000000
vn 0.873131 -0.487485 0.000000
vn 0.873132 -0.487485 0.000000
vn 0.873131 -0.487485 0.000000
vn 0.873131 -0.487485 0.000000
vn -0.873131 0.487485 0.000000
vn -0.873131 0.487485 0.000000
vn -0.873131 0.487485 0.000000
vn -0.873131 0.487485 0.000000
vn 0.465089 -0.874257 -0.139168
vn 0.399319 -0.874256 -0.276081
vn 0.786885 -0.563723 -0.251054
vn 0.670792 -0.563723 -0.481928
vn 0.294461 -0.874256 -0.385965
vn 0.489037 -0.563723 -0.665627
vn 0.160780 -0.874257 -0.458067
vn 0.259412 -0.563723 -0.784170
vn 0.011360 -0.874257 -0.485331
vn 0.004394 -0.563723 -0.825952
vn -0.139171 -0.874257 -0.465088
vn -0.251055 -0.563723 -0.786885
vn -0.276080 -0.874256 -0.399321
vn -0.481928 -0.563723 -0.670792
vn -0.385964 -0.874256 -0.294461
vn -0.665627 -0.563723 -0.489037
vn -0.458067 -0.874257 -0.160779
vn -0.784170 -0.563723 -0.259412
vn -0.485331 -0.874256 -0.011360
vn -0.825952 -0.563723 -0.004394
vn -0.465088 -0.874256 0.139172
vn -0.786885 -0.563723 0.251054
vn -0.399319 -0.874256 0.276080
vn -0.670792 -0.563723 0.481928
vn -0.294462 -0.874257 0.385962
vn -0.489037 -0.563723 0.665627
vn -0.160780 -0.874257 0.458067
vn -0.259412 -0.563723 0.784170
vn -0.011360 -0.874256 0.485332
vn -0.004394 -0.563723 0.825952
vn 0.139171 -0.874257 0.465088
vn 0.251054 -0.563723 0.786885
vn 0.276080 -0.874257 0.399319
vn 0.481928 -0.563723 0.670792
vn 0.385964 -0.874257 0.294461
vn 0.665627 -0.563723 0.489038
vn 0.458067 -0.874257 0.160778
vn 0.784170 -0.563723 0.259412
vn 0.485332 -0.874257 0.011361
vn 0.825952 -0.563723 0.004394
vn 0.951057 -0.000000 -0.309016
vn 0.809017 -0.000000 -0.587785
vn 0.587785 0.000000 -0.809017
vn 0.309017 0.000000 -0.951057
vn -0.000000 0.000000 -1.000000
vn -0.309017 0.000000 -0.951056
vn -0.587786 0.000000 -0.809017
vn -0.809017 0.000000 -0.587785
vn -0.951057 -0.000000 -0.309017
vn -1.000000 0.000000 -0.000000
vn -0.951057 0.000000 0.309017
vn -0.809017 0.000000 0.587785
vn -0.587785 0.000000 0.809017
vn -0.309017 0.000000 0.951057
vn 0.000000 -0.000000 1.000000
vn 0.309017 -0.000000 0.951056
vn 0.587785 -0.000000 0.809017
vn 0.809017 -0.000000 0.587785
vn 0.951057 -0.000000 0.309017
vn 1.000000 0.000000 0.000001
vn 0.692781 0.684271 -0.227656
vn 0.588524 0.684271 -0.430595
vn 0.426658 0.684272 -0.591384
vn 0.223028 0.684271 -0.694285
vn -0.002433 0.684271 -0.729223
vn -0.227657 0.684271 -0.692781
vn -0.430595 0.684271 -0.588525
vn -0.591385 0.684271 -0.426658
vn -0.694285 0.684271 -0.223029
vn -0.729224 0.684271 0.002433
vn -0.692781 0.684271 0.227657
vn -0.588524 0.684271 0.430595
vn -0.426658 0.684271 0.591385
vn -0.223028 0.684271 0.694285
vn 0.002433 0.684271 0.729224
vn 0.227657 0.684271 0.692781
vn 0.430596 0.684271 0.588524
vn 0.591385 0.684271 0.426658
vn 0.694285 0.684271 0.223028
vn 0.729224 0.684271 -0.002432
vn 0.000000 -1.000000 0.000000
vn -0.000000 1.000000 0.000000
s 1
g pasted__pCube69
usemtl blinn3SG
f 1/1/1 2/2/2 3/3/3
f 3/3/3 2/2/2 4/4/4
s 2
f 3/3/5 4/4/6 5/5/7
f 5/5/7 4/4/6 6/6/8
s 3
f 5/5/9 6/6/10 7/7/11
f 7/7/11 6/6/10 8/8/12
s 4
f 7/7/13 8/8/14 1/9/15
f 1/9/15 8/8/14 2/10/16
s 5
f 2/2/17 8/11/18 4/4/19
f 4/4/19 8/11/18 6/12/20
s 6
f 7/13/21 1/1/22 5/14/23
f 5/14/23 1/1/22 3/3/24
s 7
f 9/15/25 10/16/26 11/18/27
f 11/18/27 10/16/26 12/17/28
s 8
f 11/18/29 12/17/30 13/20/31
f 13/20/31 12/17/30 14/19/32
s 9
f 13/20/33 14/19/34 15/22/35
f 15/22/35 14/19/34 16/21/36
s 10
f 15/22/37 16/21/38 9/24/39
f 9/24/39 16/21/38 10/23/40
s 11
f 10/16/41 16/25/42 12/17/43
f 12/17/43 16/25/42 14/26/44
s 12
f 15/27/45 9/15/46 13/28/47
f 13/28/47 9/15/46 11/18/48
s 13
f 17/29/49 18/30/50 19/32/51
f 19/32/51 18/30/50 20/31/52
s 14
f 19/32/53 20/31/54 21/34/55
f 21/34/55 20/31/54 22/33/56
s 15
f 21/34/57 22/33/58 23/36/59
f 23/36/59 22/33/58 24/35/60
s 16
f 23/36/61 24/35/62 17/38/63
f 17/38/63 24/35/62 18/37/64
s 17
f 18/30/65 24/39/66 20/31/67
f 20/31/67 24/39/66 22/40/68
s 18
f 23/41/69 17/29/70 21/42/71
f 21/42/71 17/29/70 19/32/72
s 19
f 25/43/73 26/44/74 27/46/75
f 27/46/75 26/44/74 28/45/76
s 20
f 27/46/77 28/45/78 29/48/79
f 29/48/79 28/45/78 30/47/80
s 21
f 29/48/81 30/47/82 31/50/83
f 31/50/83 30/47/82 32/49/84
s 22
f 31/50/85 32/49/86 25/52/87
f 25/52/87 32/49/86 26/51/88
s 23
f 26/44/89 32/53/90 28/45/91
f 28/45/91 32/53/90 30/54/92
s 24
f 31/55/93 25/43/94 29/56/95
f 29/56/95 25/43/94 27/46/96
s 25
f 33/57/97 34/58/98 35/60/99
f 35/60/99 34/58/98 36/59/100
s 26
f 35/60/101 36/59/102 37/62/103
f 37/62/103 36/59/102 38/61/104
s 27
f 37/62/105 38/61/106 39/64/107
f 39/64/107 38/61/106 40/63/108
s 28
f 39/64/109 40/63/110 33/66/111
f 33/66/111 40/63/110 34/65/112
s 29
f 34/58/113 40/67/114 36/59/115
f 36/59/115 40/67/114 38/68/116
s 30
f 39/69/117 33/57/118 37/70/119
f 37/70/119 33/57/118 35/60/120
s 31
f 41/71/121 42/72/122 61/74/123
f 61/74/123 42/72/122 62/73/124
f 42/72/122 43/75/125 62/73/124
f 62/73/124 43/75/125 63/76/126
f 43/75/125 44/77/127 63/76/126
f 63/76/126 44/77/127 64/78/128
f 44/77/127 45/79/129 64/78/128
f 64/78/128 45/79/129 65/80/130
f 45/79/129 46/81/131 65/80/130
f 65/80/130 46/81/131 66/82/132
f 46/81/131 47/83/133 66/82/132
f 66/82/132 47/83/133 67/84/134
f 47/83/133 48/85/135 67/84/134
f 67/84/134 48/85/135 68/86/136
f 48/85/135 49/87/137 68/86/136
f 68/86/136 49/87/137 69/88/138
f 49/87/137 50/89/139 69/88/138
f 69/88/138 50/89/139 70/90/140
f 50/89/139 51/91/141 70/90/140
f 70/90/140 51/91/141 71/92/142
f 51/91/141 52/93/143 71/92/142
f 71/92/142 52/93/143 72/94/144
f 52/93/143 53/95/145 72/94/144
f 72/94/144 53/95/145 73/96/146
f 53/95/145 54/97/147 73/96/146
f 73/96/146 54/97/147 74/98/148
f 54/97/147 55/99/149 74/98/148
f 74/98/148 55/99/149 75/100/150
f 55/99/149 56/101/151 75/100/150
f 75/100/150 56/101/151 76/102/152
f 56/101/151 57/103/153 76/102/152
f 76/102/152 57/103/153 77/104/154
f 57/103/153 58/105/155 77/104/154
f 77/104/154 58/105/155 78/106/156
f 58/105/155 59/107/157 78/106/156
f 78/106/156 59/107/157 79/108/158
f 59/107/157 60/109/159 79/108/158
f 79/108/158 60/109/159 80/110/160
f 60/109/159 41/111/121 80/110/160
f 80/110/160 41/111/121 61/112/123
f 61/74/123 62/73/124 81/114/161
f 81/114/161 62/73/124 82/113/162
f 62/73/124 63/76/126 82/113/162
f 82/113/162 63/76/126 83/115/163
f 63/76/126 64/78/128 83/115/163
f 83/115/163 64/78/128 84/116/164
f 64/78/128 65/80/130 84/116/164
f 84/116/164 65/80/130 85/117/165
f 65/80/130 66/82/132 85/117/165
f 85/117/165 66/82/132 86/118/166
f 66/82/132 67/84/134 86/118/166
f 86/118/166 67/84/134 87/119/167
f 67/84/134 68/86/136 87/119/167
f 87/119/167 68/86/136 88/120/168
f 68/86/136 69/88/138 88/120/168
f 88/120/168 69/88/138 89/121/169
f 69/88/138 70/90/140 89/121/169
f 89/121/169 70/90/140 90/122/170
f 70/90/140 71/92/142 90/122/170
f 90/122/170 71/92/142 91/123/171
f 71/92/142 72/94/144 91/123/171
f 91/123/171 72/94/144 92/124/172
f 72/94/144 73/96/146 92/124/172
f 92/124/172 73/96/146 93/125/173
f 73/96/146 74/98/148 93/125/173
f 93/125/173 74/98/148 94/126/174
f 74/98/148 75/100/150 94/126/174
f 94/126/174 75/100/150 95/127/175
f 75/100/150 76/102/152 95/127/175
f 95/127/175 76/102/152 96/128/176
f 76/102/152 77/104/154 96/128/176
f 96/128/176 77/104/154 97/129/177
f 77/104/154 78/106/156 97/129/177
f 97/129/177 78/106/156 98/130/178
f 78/106/156 79/108/158 98/130/178
f 98/130/178 79/108/158 99/131/179
f 79/108/158 80/110/160 99/131/179
f 99/131/179 80/110/160 100/132/180
f 80/110/160 61/112/123 100/132/180
f 100/132/180 61/112/123 81/133/161
f 81/114/161 82/113/162 101/135/181
f 101/135/181 82/113/162 102/134/182
f 82/113/162 83/115/163 102/134/182
f 102/134/182 83/115/163 103/136/183
f 83/115/163 84/116/164 103/136/183
f 103/136/183 84/116/164 104/137/184
f 84/116/164 85/117/165 104/137/184
f 104/137/184 85/117/165 105/138/185
f 85/117/165 86/118/166 105/138/185
f 105/138/185 86/118/166 106/139/186
f 86/118/166 87/119/167 106/139/186
f 106/139/186 87/119/167 107/140/187
f 87/119/167 88/120/168 107/140/187
f 107/140/187 88/120/168 108/141/188
f 88/120/168 89/121/169 108/141/188
f 108/141/188 89/121/169 109/142/189
f 89/121/169 90/122/170 109/142/189
f 109/142/189 90/122/170 110/143/190
f 90/122/170 91/123/171 110/143/190
f 110/143/190 91/123/171 111/144/191
f 91/123/171 92/124/172 111/144/191
f 111/144/191 92/124/172 112/145/192
f 92/124/172 93/125/173 112/145/192
f 112/145/192 93/125/173 113/146/193
f 93/125/173 94/126/174 113/146/193
f 113/146/193 94/126/174 114/147/194
f 94/126/174 95/127/175 114/147/194
f 114/147/194 95/127/175 115/148/195
f 95/127/175 96/128/176 115/148/195
f 115/148/195 96/128/176 116/149/196
f 96/128/176 97/129/177 116/149/196
f 116/149/196 97/129/177 117/150/197
f 97/129/177 98/130/178 117/150/197
f 117/150/197 98/130/178 118/151/198
f 98/130/178 99/131/179 118/151/198
f 118/151/198 99/131/179 119/152/199
f 99/131/179 100/132/180 119/152/199
f 119/152/199 100/132/180 120/153/200
f 100/132/180 81/133/161 120/153/200
f 120/153/200 81/133/161 101/154/181
f 42/72/122 41/71/121 121/155/201
f 43/75/125 42/72/122 121/156/201
f 44/77/127 43/75/125 121/157/201
f 45/79/129 44/77/127 121/158/201
f 46/81/131 45/79/129 121/159/201
f 47/83/133 46/81/131 121/160/201
f 48/85/135 47/83/133 121/161/201
f 49/87/137 48/85/135 121/162/201
f 50/89/139 49/87/137 121/163/201
f 51/91/141 50/89/139 121/164/201
f 52/93/143 51/91/141 121/165/201
f 53/95/145 52/93/143 121/166/201
f 54/97/147 53/95/145 121/167/201
f 55/99/149 54/97/147 121/168/201
f 56/101/151 55/99/149 121/169/201
f 57/103/153 56/101/151 121/170/201
f 58/105/155 57/103/153 121/171/201
f 59/107/157 58/105/155 121/172/201
f 60/109/159 59/107/157 121/173/201
f 41/111/121 60/109/159 121/174/201
f 101/135/181 102/134/182 122/175/202
f 102/134/182 103/136/183 122/176/202
f 103/136/183 104/137/184 122/177/202
f 104/137/184 105/138/185 122/178/202
f 105/138/185 106/139/186 122/179/202
f 106/139/186 107/140/187 122/180/202
f 107/140/187 108/141/188 122/181/202
f 108/141/188 109/142/189 122/182/202
f 109/142/189 110/143/190 122/183/202
f 110/143/190 111/144/191 122/184/202
f 111/144/191 112/145/192 122/185/202
f 112/145/192 113/146/193 122/186/202
f 113/146/193 114/147/194 122/187/202
f 114/147/194 115/148/195 122/188/202
f 115/148/195 116/149/196 122/189/202
f 116/149/196 117/150/197 122/190/202
f 117/150/197 118/151/198 122/191/202
f 118/151/198 119/152/199 122/192/202
f 119/152/199 120/153/200 122/193/202
f 120/153/200 101/154/181 122/194/202
