# This file uses centimeters as units for non-parametric coordinates.

mtllib lamppostmed.mtl
g default
v 0.213642 1.521447 -0.069416
v 0.181735 1.521447 -0.132038
v 0.132038 1.521447 -0.181735
v 0.069417 1.521447 -0.213642
v 0.000000 1.521447 -0.224637
v -0.069416 1.521447 -0.213642
v -0.132038 1.521447 -0.181735
v -0.181735 1.521447 -0.132038
v -0.213642 1.521447 -0.069416
v -0.224637 1.521447 0.000000
v -0.213642 1.521447 0.069417
v -0.181735 1.521447 0.132038
v -0.132038 1.521447 0.181735
v -0.069416 1.521447 0.213642
v 0.000000 1.521447 0.224637
v 0.069417 1.521447 0.213642
v 0.132038 1.521447 0.181735
v 0.181735 1.521447 0.132038
v 0.213642 1.521447 0.069417
v 0.224637 1.521447 0.000000
v 0.559323 1.785524 -0.181735
v 0.475789 1.785524 -0.345680
v 0.345681 1.785524 -0.475788
v 0.181735 1.785524 -0.559323
v 0.000000 1.785524 -0.588107
v -0.181735 1.785524 -0.559323
v -0.345680 1.785524 -0.475788
v -0.475788 1.785524 -0.345680
v -0.559323 1.785524 -0.181735
v -0.588106 1.785524 0.000000
v -0.559323 1.785524 0.181735
v -0.475788 1.785524 0.345681
v -0.345680 1.785524 0.475788
v -0.181735 1.785524 0.559323
v 0.000000 1.785524 0.588107
v 0.181735 1.785524 0.559323
v 0.345680 1.785524 0.475788
v 0.475788 1.785524 0.345680
v 0.559323 1.785524 0.181735
v 0.588106 1.785524 0.000000
v 0.691361 2.212808 -0.224637
v 0.588107 2.212808 -0.427284
v 0.427285 2.212808 -0.588107
v 0.224637 2.212808 -0.691361
v 0.000000 2.212808 -0.726940
v -0.224637 2.212808 -0.691361
v -0.427284 2.212808 -0.588106
v -0.588106 2.212808 -0.427284
v -0.691361 2.212808 -0.224637
v -0.726940 2.212808 0.000000
v -0.691361 2.212808 0.224637
v -0.588106 2.212808 0.427285
v -0.427284 2.212808 0.588107
v -0.224637 2.212808 0.691361
v 0.000000 2.212808 0.726940
v 0.224637 2.212808 0.691361
v 0.427284 2.212808 0.588107
v 0.588106 2.212808 0.427285
v 0.691361 2.212808 0.224637
v 0.726940 2.212808 0.000000
v 0.559323 2.640092 -0.181735
v 0.475789 2.640092 -0.345680
v 0.345681 2.640092 -0.475788
v 0.181735 2.640092 -0.559323
v 0.000000 2.640092 -0.588107
v -0.181735 2.640092 -0.559323
v -0.345680 2.640092 -0.475788
v -0.475788 2.640092 -0.345680
v -0.559323 2.640092 -0.181735
v -0.588106 2.640092 0.000000
v -0.559323 2.640092 0.181735
v -0.475788 2.640092 0.345681
v -0.345680 2.640092 0.475788
v -0.181735 2.640092 0.559323
v 0.000000 2.640092 0.588107
v 0.181735 2.640092 0.559323
v 0.345680 2.640092 0.475788
v 0.475788 2.640092 0.345680
v 0.559323 2.640092 0.181735
v 0.588106 2.640092 0.000000
v 0.000000 1.485869 0.000000
v 0.000000 2.939747 0.000000
v -0.200000 -2.939747 0.200000
v 0.200000 -2.939747 0.200000
v -0.200000 2.728969 0.200000
v 0.200000 2.728969 0.200000
v -0.200000 2.728969 -0.200000
v 0.200000 2.728969 -0.200000
v -0.200000 -2.939747 -0.200000
v 0.200000 -2.939747 -0.200000
vt 0.102820 0.659576
vt 0.115879 0.659576
vt 0.128938 0.659576
vt 0.141997 0.659576
vt 0.155057 0.659576
vt 0.168116 0.659576
vt 0.181175 0.659576
vt 0.194234 0.659576
vt 0.207293 0.659576
vt 0.220352 0.659576
vt 0.233412 0.659576
vt 0.246471 0.659576
vt 0.259530 0.659576
vt 0.272589 0.659576
vt 0.285648 0.659576
vt 0.298707 0.659576
vt 0.311767 0.659576
vt 0.324826 0.659576
vt 0.337885 0.659576
vt 0.350944 0.659576
vt 0.364003 0.659576
vt 0.102820 0.711813
vt 0.115879 0.711813
vt 0.128938 0.711813
vt 0.141997 0.711813
vt 0.155057 0.711813
vt 0.168116 0.711813
vt 0.181175 0.711813
vt 0.194234 0.711813
vt 0.207293 0.711813
vt 0.220352 0.711813
vt 0.233412 0.711813
vt 0.246471 0.711813
vt 0.259530 0.711813
vt 0.272589 0.711813
vt 0.285648 0.711813
vt 0.298707 0.711813
vt 0.311767 0.711813
vt 0.324826 0.711813
vt 0.337885 0.711813
vt 0.350944 0.711813
vt 0.364003 0.711813
vt 0.102820 0.764050
vt 0.115879 0.764050
vt 0.128938 0.764050
vt 0.141997 0.764050
vt 0.155057 0.764050
vt 0.168116 0.764050
vt 0.181175 0.764050
vt 0.194234 0.764050
vt 0.207293 0.764050
vt 0.220352 0.764050
vt 0.233412 0.764050
vt 0.246471 0.764050
vt 0.259530 0.764050
vt 0.272589 0.764050
vt 0.285648 0.764050
vt 0.298707 0.764050
vt 0.311767 0.764050
vt 0.324826 0.764050
vt 0.337885 0.764050
vt 0.350944 0.764050
vt 0.364003 0.764050
vt 0.102820 0.816286
vt 0.115879 0.816286
vt 0.128938 0.816286
vt 0.141997 0.816286
vt 0.155057 0.816286
vt 0.168116 0.816286
vt 0.181175 0.816286
vt 0.194234 0.816286
vt 0.207293 0.816286
vt 0.220352 0.816286
vt 0.233412 0.816286
vt 0.246471 0.816286
vt 0.259530 0.816286
vt 0.272589 0.816286
vt 0.285648 0.816286
vt 0.298707 0.816286
vt 0.311767 0.816286
vt 0.324826 0.816286
vt 0.337885 0.816286
vt 0.350944 0.816286
vt 0.364003 0.816286
vt 0.109349 0.633458
vt 0.122409 0.633458
vt 0.135468 0.633458
vt 0.148527 0.633458
vt 0.161586 0.633458
vt 0.174645 0.633458
vt 0.187704 0.633458
vt 0.200764 0.633458
vt 0.213823 0.633458
vt 0.226882 0.633458
vt 0.239941 0.633458
vt 0.253000 0.633458
vt 0.266059 0.633458
vt 0.279119 0.633458
vt 0.292178 0.633458
vt 0.305237 0.633458
vt 0.318296 0.633458
vt 0.331355 0.633458
vt 0.344414 0.633458
vt 0.357474 0.633458
vt 0.109349 0.894641
vt 0.122409 0.894641
vt 0.135468 0.894641
vt 0.148527 0.894641
vt 0.161586 0.894641
vt 0.174645 0.894641
vt 0.187704 0.894641
vt 0.200764 0.894641
vt 0.213823 0.894641
vt 0.226882 0.894641
vt 0.239941 0.894641
vt 0.253000 0.894641
vt 0.266059 0.894641
vt 0.279119 0.894641
vt 0.292178 0.894641
vt 0.305237 0.894641
vt 0.318296 0.894641
vt 0.331355 0.894641
vt 0.344414 0.894641
vt 0.357474 0.894641
vt 0.697756 0.303377
vt 0.794798 0.303377
vt 0.794798 0.400419
vt 0.697756 0.400419
vt 0.794798 0.497461
vt 0.697756 0.497461
vt 0.794798 0.594503
vt 0.697756 0.594503
vt 0.794798 0.691545
vt 0.697756 0.691545
vt 0.891840 0.303377
vt 0.891840 0.400419
vt 0.600714 0.303377
vt 0.600714 0.400419
vn 0.465088 -0.874256 -0.139172
vn 0.399319 -0.874256 -0.276081
vn 0.786885 -0.563723 -0.251053
vn 0.670792 -0.563723 -0.481928
vn 0.294461 -0.874256 -0.385964
vn 0.489037 -0.563723 -0.665627
vn 0.160780 -0.874256 -0.458067
vn 0.259412 -0.563723 -0.784170
vn 0.011360 -0.874256 -0.485332
vn 0.004394 -0.563723 -0.825952
vn -0.139171 -0.874257 -0.465088
vn -0.251054 -0.563723 -0.786885
vn -0.276080 -0.874256 -0.399319
vn -0.481928 -0.563723 -0.670792
vn -0.385964 -0.874256 -0.294463
vn -0.665627 -0.563723 -0.489037
vn -0.458067 -0.874256 -0.160781
vn -0.784169 -0.563723 -0.259412
vn -0.485331 -0.874257 -0.011361
vn -0.825952 -0.563723 -0.004394
vn -0.465088 -0.874256 0.139172
vn -0.786885 -0.563723 0.251054
vn -0.399319 -0.874256 0.276081
vn -0.670792 -0.563723 0.481928
vn -0.294461 -0.874256 0.385964
vn -0.489037 -0.563723 0.665627
vn -0.160780 -0.874256 0.458067
vn -0.259412 -0.563723 0.784170
vn -0.011360 -0.874256 0.485331
vn -0.004394 -0.563723 0.825952
vn 0.139171 -0.874257 0.465088
vn 0.251055 -0.563723 0.786885
vn 0.276080 -0.874257 0.399318
vn 0.481928 -0.563723 0.670792
vn 0.385964 -0.874256 0.294462
vn 0.665627 -0.563723 0.489037
vn 0.458067 -0.874256 0.160782
vn 0.784170 -0.563723 0.259412
vn 0.485331 -0.874257 0.011360
vn 0.825952 -0.563723 0.004394
vn 0.951057 -0.000000 -0.309016
vn 0.809017 -0.000000 -0.587785
vn 0.587785 -0.000000 -0.809017
vn 0.309017 -0.000000 -0.951057
vn 0.000000 -0.000000 -1.000000
vn -0.309017 -0.000000 -0.951056
vn -0.587786 0.000000 -0.809017
vn -0.809017 0.000000 -0.587785
vn -0.951057 0.000000 -0.309017
vn -1.000000 0.000000 0.000000
vn -0.951057 -0.000000 0.309017
vn -0.809017 -0.000000 0.587785
vn -0.587785 0.000000 0.809017
vn -0.309017 0.000000 0.951057
vn -0.000000 -0.000000 1.000000
vn 0.309017 -0.000000 0.951057
vn 0.587785 0.000000 0.809017
vn 0.809017 -0.000000 0.587785
vn 0.951057 -0.000000 0.309017
vn 1.000000 -0.000000 0.000001
vn 0.692781 0.684271 -0.227656
vn 0.588524 0.684271 -0.430595
vn 0.426658 0.684272 -0.591384
vn 0.223028 0.684272 -0.694284
vn -0.002433 0.684271 -0.729223
vn -0.227657 0.684272 -0.692781
vn -0.430596 0.684272 -0.588524
vn -0.591385 0.684271 -0.426658
vn -0.694285 0.684271 -0.223028
vn -0.729224 0.684271 0.002433
vn -0.692781 0.684271 0.227656
vn -0.588524 0.684271 0.430595
vn -0.426658 0.684271 0.591385
vn -0.223028 0.684271 0.694284
vn 0.002433 0.684271 0.729223
vn 0.227657 0.684271 0.692781
vn 0.430596 0.684271 0.588524
vn 0.591385 0.684271 0.426658
vn 0.694285 0.684271 0.223028
vn 0.729224 0.684271 -0.002432
vn 0.000000 -1.000000 -0.000000
vn -0.000000 1.000000 0.000000
vn 0.000000 0.000000 1.000000
vn 0.000000 0.000000 1.000000
vn 0.000000 0.000000 1.000000
vn 0.000000 0.000000 1.000000
vn 0.000000 1.000000 0.000000
vn 0.000000 1.000000 0.000000
vn 0.000000 1.000000 0.000000
vn 0.000000 1.000000 0.000000
vn 0.000000 0.000000 -1.000000
vn 0.000000 0.000000 -1.000000
vn 0.000000 0.000000 -1.000000
vn 0.000000 0.000000 -1.000000
vn 0.000000 -1.000000 0.000000
vn 0.000000 -1.000000 0.000000
vn 0.000000 -1.000000 0.000000
vn 0.000000 -1.000000 0.000000
vn 1.000000 0.000000 0.000000
vn 1.000000 0.000000 0.000000
vn 1.000000 0.000000 0.000000
vn 1.000000 0.000000 0.000000
vn -1.000000 0.000000 0.000000
vn -1.000000 0.000000 0.000000
vn -1.000000 0.000000 0.000000
vn -1.000000 0.000000 0.000000
s 1
g pSphere3
usemtl blinn5SG
f 1/1/1 2/2/2 21/22/3
f 21/22/3 2/2/2 22/23/4
f 2/2/2 3/3/5 22/23/4
f 22/23/4 3/3/5 23/24/6
f 3/3/5 4/4/7 23/24/6
f 23/24/6 4/4/7 24/25/8
f 4/4/7 5/5/9 24/25/8
f 24/25/8 5/5/9 25/26/10
f 5/5/9 6/6/11 25/26/10
f 25/26/10 6/6/11 26/27/12
f 6/6/11 7/7/13 26/27/12
f 26/27/12 7/7/13 27/28/14
f 7/7/13 8/8/15 27/28/14
f 27/28/14 8/8/15 28/29/16
f 8/8/15 9/9/17 28/29/16
f 28/29/16 9/9/17 29/30/18
f 9/9/17 10/10/19 29/30/18
f 29/30/18 10/10/19 30/31/20
f 10/10/19 11/11/21 30/31/20
f 30/31/20 11/11/21 31/32/22
f 11/11/21 12/12/23 31/32/22
f 31/32/22 12/12/23 32/33/24
f 12/12/23 13/13/25 32/33/24
f 32/33/24 13/13/25 33/34/26
f 13/13/25 14/14/27 33/34/26
f 33/34/26 14/14/27 34/35/28
f 14/14/27 15/15/29 34/35/28
f 34/35/28 15/15/29 35/36/30
f 15/15/29 16/16/31 35/36/30
f 35/36/30 16/16/31 36/37/32
f 16/16/31 17/17/33 36/37/32
f 36/37/32 17/17/33 37/38/34
f 17/17/33 18/18/35 37/38/34
f 37/38/34 18/18/35 38/39/36
f 18/18/35 19/19/37 38/39/36
f 38/39/36 19/19/37 39/40/38
f 19/19/37 20/20/39 39/40/38
f 39/40/38 20/20/39 40/41/40
f 20/20/39 1/21/1 40/41/40
f 40/41/40 1/21/1 21/42/3
f 21/22/3 22/23/4 41/43/41
f 41/43/41 22/23/4 42/44/42
f 22/23/4 23/24/6 42/44/42
f 42/44/42 23/24/6 43/45/43
f 23/24/6 24/25/8 43/45/43
f 43/45/43 24/25/8 44/46/44
f 24/25/8 25/26/10 44/46/44
f 44/46/44 25/26/10 45/47/45
f 25/26/10 26/27/12 45/47/45
f 45/47/45 26/27/12 46/48/46
f 26/27/12 27/28/14 46/48/46
f 46/48/46 27/28/14 47/49/47
f 27/28/14 28/29/16 47/49/47
f 47/49/47 28/29/16 48/50/48
f 28/29/16 29/30/18 48/50/48
f 48/50/48 29/30/18 49/51/49
f 29/30/18 30/31/20 49/51/49
f 49/51/49 30/31/20 50/52/50
f 30/31/20 31/32/22 50/52/50
f 50/52/50 31/32/22 51/53/51
f 31/32/22 32/33/24 51/53/51
f 51/53/51 32/33/24 52/54/52
f 32/33/24 33/34/26 52/54/52
f 52/54/52 33/34/26 53/55/53
f 33/34/26 34/35/28 53/55/53
f 53/55/53 34/35/28 54/56/54
f 34/35/28 35/36/30 54/56/54
f 54/56/54 35/36/30 55/57/55
f 35/36/30 36/37/32 55/57/55
f 55/57/55 36/37/32 56/58/56
f 36/37/32 37/38/34 56/58/56
f 56/58/56 37/38/34 57/59/57
f 37/38/34 38/39/36 57/59/57
f 57/59/57 38/39/36 58/60/58
f 38/39/36 39/40/38 58/60/58
f 58/60/58 39/40/38 59/61/59
f 39/40/38 40/41/40 59/61/59
f 59/61/59 40/41/40 60/62/60
f 40/41/40 21/42/3 60/62/60
f 60/62/60 21/42/3 41/63/41
f 41/43/41 42/44/42 61/64/61
f 61/64/61 42/44/42 62/65/62
f 42/44/42 43/45/43 62/65/62
f 62/65/62 43/45/43 63/66/63
f 43/45/43 44/46/44 63/66/63
f 63/66/63 44/46/44 64/67/64
f 44/46/44 45/47/45 64/67/64
f 64/67/64 45/47/45 65/68/65
f 45/47/45 46/48/46 65/68/65
f 65/68/65 46/48/46 66/69/66
f 46/48/46 47/49/47 66/69/66
f 66/69/66 47/49/47 67/70/67
f 47/49/47 48/50/48 67/70/67
f 67/70/67 48/50/48 68/71/68
f 48/50/48 49/51/49 68/71/68
f 68/71/68 49/51/49 69/72/69
f 49/51/49 50/52/50 69/72/69
f 69/72/69 50/52/50 70/73/70
f 50/52/50 51/53/51 70/73/70
f 70/73/70 51/53/51 71/74/71
f 51/53/51 52/54/52 71/74/71
f 71/74/71 52/54/52 72/75/72
f 52/54/52 53/55/53 72/75/72
f 72/75/72 53/55/53 73/76/73
f 53/55/53 54/56/54 73/76/73
f 73/76/73 54/56/54 74/77/74
f 54/56/54 55/57/55 74/77/74
f 74/77/74 55/57/55 75/78/75
f 55/57/55 56/58/56 75/78/75
f 75/78/75 56/58/56 76/79/76
f 56/58/56 57/59/57 76/79/76
f 76/79/76 57/59/57 77/80/77
f 57/59/57 58/60/58 77/80/77
f 77/80/77 58/60/58 78/81/78
f 58/60/58 59/61/59 78/81/78
f 78/81/78 59/61/59 79/82/79
f 59/61/59 60/62/60 79/82/79
f 79/82/79 60/62/60 80/83/80
f 60/62/60 41/63/41 80/83/80
f 80/83/80 41/63/41 61/84/61
f 2/2/2 1/1/1 81/85/81
f 3/3/5 2/2/2 81/86/81
f 4/4/7 3/3/5 81/87/81
f 5/5/9 4/4/7 81/88/81
f 6/6/11 5/5/9 81/89/81
f 7/7/13 6/6/11 81/90/81
f 8/8/15 7/7/13 81/91/81
f 9/9/17 8/8/15 81/92/81
f 10/10/19 9/9/17 81/93/81
f 11/11/21 10/10/19 81/94/81
f 12/12/23 11/11/21 81/95/81
f 13/13/25 12/12/23 81/96/81
f 14/14/27 13/13/25 81/97/81
f 15/15/29 14/14/27 81/98/81
f 16/16/31 15/15/29 81/99/81
f 17/17/33 16/16/31 81/100/81
f 18/18/35 17/17/33 81/101/81
f 19/19/37 18/18/35 81/102/81
f 20/20/39 19/19/37 81/103/81
f 1/21/1 20/20/39 81/104/81
f 61/64/61 62/65/62 82/105/82
f 62/65/62 63/66/63 82/106/82
f 63/66/63 64/67/64 82/107/82
f 64/67/64 65/68/65 82/108/82
f 65/68/65 66/69/66 82/109/82
f 66/69/66 67/70/67 82/110/82
f 67/70/67 68/71/68 82/111/82
f 68/71/68 69/72/69 82/112/82
f 69/72/69 70/73/70 82/113/82
f 70/73/70 71/74/71 82/114/82
f 71/74/71 72/75/72 82/115/82
f 72/75/72 73/76/73 82/116/82
f 73/76/73 74/77/74 82/117/82
f 74/77/74 75/78/75 82/118/82
f 75/78/75 76/79/76 82/119/82
f 76/79/76 77/80/77 82/120/82
f 77/80/77 78/81/78 82/121/82
f 78/81/78 79/82/79 82/122/82
f 79/82/79 80/83/80 82/123/82
f 80/83/80 61/84/61 82/124/82
s 2
f 83/125/83 84/126/84 85/128/85
f 85/128/85 84/126/84 86/127/86
s 3
f 85/128/87 86/127/88 87/130/89
f 87/130/89 86/127/88 88/129/90
s 4
f 87/130/91 88/129/92 89/132/93
f 89/132/93 88/129/92 90/131/94
s 5
f 89/132/95 90/131/96 83/134/97
f 83/134/97 90/131/96 84/133/98
s 6
f 84/126/99 90/135/100 86/127/101
f 86/127/101 90/135/100 88/136/102
s 7
f 89/137/103 83/125/104 87/138/105
f 87/138/105 83/125/104 85/128/106
