# This file uses centimeters as units for non-parametric coordinates.

mtllib lamppostlow.mtl
g default
v -0.200000 -2.788694 0.200000
v 0.200000 -2.788694 0.200000
v -0.200000 1.853626 0.200000
v 0.200000 1.853626 0.200000
v -0.200000 1.853626 -0.200000
v 0.200000 1.853626 -0.200000
v -0.200000 -2.788694 -0.200000
v 0.200000 -2.788694 -0.200000
v -0.500000 1.788694 0.500000
v 0.500000 1.788694 0.500000
v -0.500000 2.788694 0.500000
v 0.500000 2.788694 0.500000
v -0.500000 2.788694 -0.500000
v 0.500000 2.788694 -0.500000
v -0.500000 1.788694 -0.500000
v 0.500000 1.788694 -0.500000
vt 0.703059 0.099507
vt 0.801544 0.099507
vt 0.703059 0.197992
vt 0.801544 0.197992
vt 0.703059 0.296477
vt 0.801544 0.296477
vt 0.703059 0.394962
vt 0.801544 0.394962
vt 0.703059 0.493447
vt 0.801544 0.493447
vt 0.900029 0.099507
vt 0.900029 0.197992
vt 0.604574 0.099507
vt 0.604574 0.197992
vt 0.202555 0.502766
vt 0.302934 0.502766
vt 0.202555 0.603144
vt 0.302934 0.603144
vt 0.202555 0.703523
vt 0.302934 0.703523
vt 0.202555 0.803902
vt 0.302934 0.803902
vt 0.202555 0.904281
vt 0.302934 0.904281
vt 0.403313 0.502766
vt 0.403313 0.603144
vt 0.102176 0.502766
vt 0.102176 0.603144
vn 0.000000 0.000000 1.000000
vn 0.000000 0.000000 1.000000
vn 0.000000 0.000000 1.000000
vn 0.000000 0.000000 1.000000
vn 0.000000 1.000000 0.000000
vn 0.000000 1.000000 0.000000
vn 0.000000 1.000000 0.000000
vn 0.000000 1.000000 0.000000
vn 0.000000 0.000000 -1.000000
vn 0.000000 0.000000 -1.000000
vn 0.000000 0.000000 -1.000000
vn 0.000000 0.000000 -1.000000
vn 0.000000 -1.000000 0.000000
vn 0.000000 -1.000000 0.000000
vn 0.000000 -1.000000 0.000000
vn 0.000000 -1.000000 0.000000
vn 1.000000 0.000000 0.000000
vn 1.000000 0.000000 0.000000
vn 1.000000 0.000000 0.000000
vn 1.000000 0.000000 0.000000
vn -1.000000 0.000000 0.000000
vn -1.000000 0.000000 0.000000
vn -1.000000 0.000000 0.000000
vn -1.000000 0.000000 0.000000
vn 0.000000 0.000000 1.000000
vn 0.000000 0.000000 1.000000
vn 0.000000 0.000000 1.000000
vn 0.000000 0.000000 1.000000
vn 0.000000 1.000000 0.000000
vn 0.000000 1.000000 0.000000
vn 0.000000 1.000000 0.000000
vn 0.000000 1.000000 0.000000
vn 0.000000 0.000000 -1.000000
vn 0.000000 0.000000 -1.000000
vn 0.000000 0.000000 -1.000000
vn 0.000000 0.000000 -1.000000
vn 0.000000 -1.000000 0.000000
vn 0.000000 -1.000000 0.000000
vn 0.000000 -1.000000 0.000000
vn 0.000000 -1.000000 0.000000
vn 1.000000 0.000000 0.000000
vn 1.000000 0.000000 0.000000
vn 1.000000 0.000000 0.000000
vn 1.000000 0.000000 0.000000
vn -1.000000 0.000000 0.000000
vn -1.000000 0.000000 0.000000
vn -1.000000 0.000000 0.000000
vn -1.000000 0.000000 0.000000
s 1
g pCube5
usemtl blinn4SG
f 1/1/1 2/2/2 3/3/3
f 3/3/3 2/2/2 4/4/4
s 2
f 3/3/5 4/4/6 5/5/7
f 5/5/7 4/4/6 6/6/8
s 3
f 5/5/9 6/6/10 7/7/11
f 7/7/11 6/6/10 8/8/12
s 4
f 7/7/13 8/8/14 1/9/15
f 1/9/15 8/8/14 2/10/16
s 5
f 2/2/17 8/11/18 4/4/19
f 4/4/19 8/11/18 6/12/20
s 6
f 7/13/21 1/1/22 5/14/23
f 5/14/23 1/1/22 3/3/24
s 7
f 9/15/25 10/16/26 11/17/27
f 11/17/27 10/16/26 12/18/28
s 8
f 11/17/29 12/18/30 13/19/31
f 13/19/31 12/18/30 14/20/32
s 9
f 13/19/33 14/20/34 15/21/35
f 15/21/35 14/20/34 16/22/36
s 10
f 15/21/37 16/22/38 9/23/39
f 9/23/39 16/22/38 10/24/40
s 11
f 10/16/41 16/25/42 12/18/43
f 12/18/43 16/25/42 14/26/44
s 12
f 15/27/45 9/15/46 13/28/47
f 13/28/47 9/15/46 11/17/48
