# This file uses centimeters as units for non-parametric coordinates.

mtllib treemed.mtl
g default
v 1.327590 2.402824 -0.435925
v -0.014051 2.150125 0.000000
v 0.718459 3.266292 -2.254435
v -1.407369 3.266292 -1.917736
v -2.268486 3.266292 0.732511
v 0.510368 2.537668 1.613997
v 1.903685 3.266292 1.393317
v 2.156771 3.064402 -0.705342
v -0.746561 3.266292 2.254435
v 2.268486 3.473278 -0.741641
v -1.270981 4.073977 -1.730015
v 1.832560 4.251009 -0.600000
v -1.744066 4.073977 1.256930
v 0.646755 4.073977 2.033755
v 2.019703 4.073977 0.660807
v -0.014051 4.796433 0.000000
v 1.022199 4.652217 -0.336698
v 1.327590 -0.353746 -0.435925
v -0.014051 -0.606446 0.000000
v 0.718459 0.509722 -2.254435
v -1.407369 0.509722 -1.917736
v -2.268486 0.509722 0.732511
v 0.510368 -0.218903 1.613997
v 1.903685 0.509722 1.393317
v 2.156771 0.307831 -0.705342
v -0.746561 0.509722 2.254435
v 2.268486 0.716708 -0.741641
v -1.270981 1.317407 -1.730015
v 1.832560 1.494438 -0.600000
v -1.744066 1.317407 1.256930
v 0.646755 1.317407 2.033755
v 2.019703 1.317407 0.660807
v -0.014051 2.039863 0.000000
v 1.022199 1.895647 -0.336698
v 0.179084 -4.796433 -0.594410
v -0.207187 -4.796433 -0.594410
v -0.608462 -4.796433 -0.193135
v -0.519687 -4.796433 0.367366
v -0.014051 -4.796433 0.625000
v 0.353314 -4.796433 0.505636
v 0.580359 -4.796433 0.193136
v 0.179084 3.473278 -0.594410
v -0.207187 3.473278 -0.594410
v -0.519687 3.473278 -0.367366
v -0.608462 3.473278 0.193136
v -0.207187 3.473278 0.594411
v 0.353314 3.473278 0.505636
v 0.580359 3.473278 0.193136
v 0.580359 3.473278 -0.193135
v 0.580359 -4.796433 -0.193135
vt 0.710840 0.389311
vt 0.912616 0.343191
vt 0.941441 0.389311
vt 0.745430 0.446961
vt 0.780021 0.446961
vt 0.826141 0.446961
vt 0.883791 0.400841
vt 0.906851 0.446961
vt 0.710840 0.435431
vt 0.941441 0.435431
vt 0.860731 0.446961
vt 0.710840 0.458491
vt 0.941441 0.458491
vt 0.780021 0.493081
vt 0.710840 0.504611
vt 0.837671 0.493081
vt 0.883791 0.493081
vt 0.918381 0.493081
vt 0.941441 0.504611
vt 0.889556 0.573792
vt 0.710840 0.539202
vt 0.941441 0.539202
vt 0.935676 0.573792
vt 0.808846 0.343191
vt 0.889556 0.343191
vt 0.710840 0.389311
vt 0.912616 0.343191
vt 0.941441 0.389311
vt 0.745430 0.446961
vt 0.780021 0.446961
vt 0.826141 0.446961
vt 0.883791 0.400841
vt 0.906851 0.446961
vt 0.710840 0.435431
vt 0.941441 0.435431
vt 0.860731 0.446961
vt 0.710840 0.458491
vt 0.941441 0.458491
vt 0.780021 0.493081
vt 0.710840 0.504611
vt 0.837671 0.493081
vt 0.883791 0.493081
vt 0.918381 0.493081
vt 0.941441 0.504611
vt 0.889556 0.573792
vt 0.710840 0.539202
vt 0.941441 0.539202
vt 0.935676 0.573792
vt 0.808846 0.343191
vt 0.889556 0.343191
vt 0.228506 0.384804
vt 0.228506 0.550382
vt 0.245023 0.550382
vt 0.245023 0.384804
vt 0.256034 0.550382
vt 0.256034 0.384804
vt 0.267045 0.550382
vt 0.272550 0.384804
vt 0.283561 0.550382
vt 0.289066 0.384804
vt 0.300077 0.550382
vt 0.305583 0.384804
vt 0.316594 0.550382
vt 0.316594 0.384804
vt 0.327605 0.550382
vt 0.327605 0.384804
vt 0.338616 0.550382
vt 0.338616 0.384804
vt 0.349011 0.294720
vt 0.304827 0.250535
vt 0.262295 0.250536
vt 0.218111 0.294720
vt 0.227886 0.356436
vt 0.283561 0.384804
vt 0.324012 0.371661
vt 0.349011 0.337252
vt 0.304827 0.684236
vt 0.262295 0.684236
vt 0.227886 0.659237
vt 0.218111 0.597520
vt 0.262295 0.553336
vt 0.324012 0.563111
vt 0.349011 0.597520
vt 0.349011 0.640052
vn 0.301276 -0.948499 -0.097891
vn -0.169853 -0.984645 -0.040308
vn 0.193756 -0.174154 -0.965468
vn -0.503221 -0.689771 -0.520561
vn -0.809365 -0.582139 0.077729
vn 0.057397 -0.901378 0.429212
vn 0.669813 -0.424884 0.608954
vn 0.698551 -0.678609 -0.226973
vn -0.275753 -0.400130 0.873989
vn 0.901266 0.195174 -0.386816
vn -0.322553 0.824450 -0.465019
vn 0.366525 0.817464 -0.444310
vn -0.506473 0.816809 0.276240
vn 0.146877 0.743643 0.652244
vn 0.617515 0.725187 0.304597
vn -0.077434 0.996278 -0.037870
vn 0.235608 0.970339 0.054130
vn 0.301276 -0.948499 -0.097891
vn -0.169853 -0.984645 -0.040308
vn 0.193756 -0.174154 -0.965468
vn -0.503221 -0.689772 -0.520561
vn -0.809365 -0.582139 0.077729
vn 0.057397 -0.901378 0.429212
vn 0.669813 -0.424884 0.608954
vn 0.698551 -0.678608 -0.226973
vn -0.275753 -0.400130 0.873989
vn 0.901266 0.195174 -0.386817
vn -0.322553 0.824450 -0.465019
vn 0.366525 0.817464 -0.444311
vn -0.506473 0.816809 0.276240
vn 0.146877 0.743643 0.652244
vn 0.617515 0.725187 0.304597
vn -0.077434 0.996278 -0.037870
vn 0.235608 0.970339 0.054131
vn 0.891007 0.000000 -0.453990
vn 0.891007 0.000000 -0.453990
vn 0.453991 0.000000 -0.891007
vn 0.453990 0.000000 -0.891007
vn -0.309017 0.000000 -0.951057
vn -0.452116 -0.004628 -0.891947
vn -0.889595 0.004525 -0.456728
vn -0.951026 -0.007993 -0.309007
vn -0.951026 0.007993 0.309007
vn -0.808991 -0.007993 0.587767
vn -0.309007 0.007993 0.951026
vn -0.153389 -0.004525 0.988156
vn 0.455853 0.004628 0.890043
vn 0.587785 0.000000 0.809017
vn 0.951056 0.000000 0.309017
vn 0.951056 0.000000 0.309017
vn 0.000000 -1.000000 0.000000
vn 0.000000 -1.000000 0.000000
vn 0.000000 -1.000000 0.000000
vn 0.000000 -1.000000 0.000000
vn 0.000000 -1.000000 0.000000
vn 0.000000 -1.000000 0.000000
vn 0.000000 -1.000000 0.000000
vn 0.000000 -1.000000 0.000000
vn 0.000000 1.000000 -0.000002
vn 0.000000 1.000000 -0.000001
vn 0.000000 1.000000 -0.000001
vn 0.000000 1.000000 -0.000003
vn 0.000000 1.000000 0.000000
vn 0.000000 1.000000 -0.000004
vn 0.000000 1.000000 0.000004
vn 0.000000 1.000000 -0.000001
s 1
g pasted__pSphere6 group9
usemtl blinn8SG
f 1/1/1 2/24/2 3/4/3
f 3/4/3 2/24/2 4/5/4
f 4/5/4 2/25/2 5/6/5
f 5/6/5 2/25/2 6/7/6
f 6/7/6 2/2/2 7/8/7
f 2/2/2 1/3/1 7/8/7
f 1/1/1 3/4/3 8/9/8
f 7/8/7 1/3/1 8/10/8
f 5/6/5 6/7/6 9/11/9
f 9/11/9 6/7/6 7/8/7
f 8/9/8 3/4/3 10/12/10
f 7/8/7 8/10/8 10/13/10
f 3/4/3 4/5/4 11/14/11
f 10/12/10 3/4/3 12/15/12
f 3/4/3 11/14/11 12/15/12
f 4/5/4 5/6/5 11/14/11
f 11/14/11 5/6/5 13/16/13
f 5/6/5 9/11/9 13/16/13
f 13/16/13 9/11/9 14/17/14
f 9/11/9 7/8/7 14/17/14
f 14/17/14 7/8/7 15/18/15
f 7/8/7 10/13/10 15/18/15
f 15/18/15 10/13/10 12/19/12
f 12/15/12 11/14/11 16/20/16
f 15/18/15 12/19/12 17/22/17
f 17/21/17 12/15/12 16/20/16
f 11/14/11 13/16/13 16/20/16
f 13/16/13 14/17/14 16/20/16
f 14/17/14 15/18/15 16/20/16
f 16/23/16 15/18/15 17/22/17
s 2
f 18/26/18 19/49/19 20/29/20
f 20/29/20 19/49/19 21/30/21
f 21/30/21 19/50/19 22/31/22
f 22/31/22 19/50/19 23/32/23
f 23/32/23 19/27/19 24/33/24
f 19/27/19 18/28/18 24/33/24
f 18/26/18 20/29/20 25/34/25
f 24/33/24 18/28/18 25/35/25
f 22/31/22 23/32/23 26/36/26
f 26/36/26 23/32/23 24/33/24
f 25/34/25 20/29/20 27/37/27
f 24/33/24 25/35/25 27/38/27
f 20/29/20 21/30/21 28/39/28
f 27/37/27 20/29/20 29/40/29
f 20/29/20 28/39/28 29/40/29
f 21/30/21 22/31/22 28/39/28
f 28/39/28 22/31/22 30/41/30
f 22/31/22 26/36/26 30/41/30
f 30/41/30 26/36/26 31/42/31
f 26/36/26 24/33/24 31/42/31
f 31/42/31 24/33/24 32/43/32
f 24/33/24 27/38/27 32/43/32
f 32/43/32 27/38/27 29/44/29
f 29/40/29 28/39/28 33/45/33
f 32/43/32 29/44/29 34/47/34
f 34/46/34 29/40/29 33/45/33
f 28/39/28 30/41/30 33/45/33
f 30/41/30 31/42/31 33/45/33
f 31/42/31 32/43/32 33/45/33
f 33/48/33 32/43/32 34/47/34
s 3
f 49/52/35 50/51/36 42/53/37
f 50/51/36 35/54/38 42/53/37
f 42/53/37 35/54/38 43/55/39
f 35/54/38 36/56/40 43/55/39
f 43/55/39 36/56/40 44/57/41
f 36/56/40 37/58/42 44/57/41
f 44/57/41 37/58/42 45/59/43
f 37/58/42 38/60/44 45/59/43
f 45/59/43 38/60/44 46/61/45
f 38/60/44 39/62/46 46/61/45
f 46/61/45 39/62/46 47/63/47
f 39/62/46 40/64/48 47/63/47
f 47/63/47 40/64/48 48/65/49
f 40/64/48 41/66/50 48/65/49
f 48/65/49 41/66/50 49/67/35
f 41/66/50 50/68/36 49/67/35
s 4
f 36/71/51 35/70/52 50/69/53
f 37/72/54 36/71/51 50/69/53
f 38/73/55 37/72/54 50/69/53
f 39/74/56 38/73/55 50/69/53
f 40/75/57 39/74/56 50/69/53
f 41/76/58 40/75/57 50/69/53
s 5
f 49/84/59 42/77/60 45/80/61
f 42/77/60 43/78/62 45/80/61
f 43/78/62 44/79/63 45/80/61
f 46/81/64 47/82/65 45/80/61
f 47/82/65 48/83/66 45/80/61
f 48/83/66 49/84/59 45/80/61
