# This file uses centimeters as units for non-parametric coordinates.

mtllib treelow.mtl
g default
v 2.282537 2.097794 -0.741641
v 1.941642 2.097794 -1.410685
v 1.410686 2.097794 -1.941641
v 0.741641 2.097794 -2.282537
v 0.000000 2.097794 -2.400001
v -0.741641 2.097794 -2.282536
v -1.410685 2.097794 -1.941641
v -1.941641 2.097794 -1.410684
v -2.282536 2.097794 -0.741641
v -2.400000 2.097794 0.000000
v -2.282536 2.097794 0.741642
v -1.941641 2.097794 1.410685
v -1.410685 2.097794 1.941641
v -0.741641 2.097794 2.282536
v 0.000000 2.097794 2.400001
v 0.741641 2.097794 2.282536
v 1.410685 2.097794 1.941641
v 1.941641 2.097794 1.410685
v 2.282536 2.097794 0.741642
v 2.400000 2.097794 0.000000
v 0.000000 4.679696 0.000000
v 2.282537 -0.053790 -0.741641
v 1.941642 -0.053790 -1.410685
v 1.410686 -0.053790 -1.941641
v 0.741641 -0.053790 -2.282537
v 0.000000 -0.053790 -2.400001
v -0.741641 -0.053790 -2.282536
v -1.410685 -0.053790 -1.941641
v -1.941641 -0.053790 -1.410684
v -2.282536 -0.053790 -0.741641
v -2.400000 -0.053790 0.000000
v -2.282536 -0.053790 0.741642
v -1.941641 -0.053790 1.410685
v -1.410685 -0.053790 1.941641
v -0.741641 -0.053790 2.282536
v 0.000000 -0.053790 2.400001
v 0.741641 -0.053790 2.282536
v 1.410685 -0.053790 1.941641
v 1.941641 -0.053790 1.410685
v 2.282536 -0.053790 0.741642
v 2.400000 -0.053790 0.000000
v 0.000000 2.528112 0.000000
v 0.193136 -4.679696 -0.594410
v -0.193135 -4.679696 -0.594410
v -0.505636 -4.679696 -0.367365
v -0.625000 -4.679696 0.000000
v -0.505635 -4.679696 0.367366
v 0.000000 -4.679696 0.625000
v 0.367366 -4.679696 0.505636
v 0.367366 3.388745 -0.505636
v -0.193135 3.388745 -0.594410
v -0.505636 3.388745 -0.367365
v -0.625000 3.388745 0.000000
v -0.505635 3.388745 0.367366
v -0.193135 3.388745 0.594410
v 0.367366 3.388745 0.505636
v 0.594411 3.388745 0.193136
v 0.594411 3.388745 -0.193136
v 0.594411 -4.679696 -0.193136
vt 0.910943 0.660419
vt 0.901221 0.641338
vt 0.886079 0.626196
vt 0.866998 0.616474
vt 0.845847 0.613124
vt 0.824696 0.616474
vt 0.805616 0.626196
vt 0.790473 0.641338
vt 0.780751 0.660419
vt 0.777401 0.681570
vt 0.780751 0.702721
vt 0.790473 0.721801
vt 0.805616 0.736944
vt 0.824696 0.746666
vt 0.845847 0.750016
vt 0.866998 0.746666
vt 0.886079 0.736944
vt 0.901221 0.721801
vt 0.910943 0.702721
vt 0.914293 0.681570
vt 0.709137 0.604422
vt 0.722808 0.604422
vt 0.736479 0.604422
vt 0.750150 0.604422
vt 0.763821 0.604422
vt 0.777492 0.604422
vt 0.791163 0.604422
vt 0.804834 0.604422
vt 0.818505 0.604422
vt 0.832176 0.604422
vt 0.845847 0.604422
vt 0.859518 0.604422
vt 0.873189 0.604422
vt 0.886860 0.604422
vt 0.900531 0.604422
vt 0.914202 0.604422
vt 0.927873 0.604422
vt 0.941544 0.604422
vt 0.955215 0.604422
vt 0.968886 0.604422
vt 0.982557 0.604422
vt 0.845847 0.877842
vt 0.910943 0.660419
vt 0.914293 0.681570
vt 0.910943 0.702721
vt 0.901221 0.721801
vt 0.886079 0.736944
vt 0.866998 0.746666
vt 0.845847 0.750016
vt 0.824696 0.746666
vt 0.805616 0.736944
vt 0.790473 0.721801
vt 0.780751 0.702721
vt 0.777401 0.681570
vt 0.780751 0.660419
vt 0.790473 0.641338
vt 0.805616 0.626196
vt 0.824696 0.616474
vt 0.845847 0.613124
vt 0.866998 0.616474
vt 0.886079 0.626196
vt 0.901221 0.641338
vt 0.709137 0.604422
vt 0.722808 0.604422
vt 0.845847 0.877842
vt 0.736479 0.604422
vt 0.750150 0.604422
vt 0.763821 0.604422
vt 0.777492 0.604422
vt 0.791163 0.604422
vt 0.804834 0.604422
vt 0.818505 0.604422
vt 0.832176 0.604422
vt 0.845847 0.604422
vt 0.859518 0.604422
vt 0.873189 0.604422
vt 0.886860 0.604422
vt 0.900531 0.604422
vt 0.914202 0.604422
vt 0.927873 0.604422
vt 0.941544 0.604422
vt 0.955215 0.604422
vt 0.968886 0.604422
vt 0.982557 0.604422
vt 0.103052 0.318412
vt 0.128052 0.694352
vt 0.103052 0.694352
vt 0.140552 0.318412
vt 0.165552 0.694352
vt 0.165552 0.318412
vt 0.190552 0.694352
vt 0.190552 0.318412
vt 0.215552 0.694352
vt 0.215552 0.318412
vt 0.240552 0.694352
vt 0.240552 0.318412
vt 0.265552 0.694352
vt 0.278052 0.318412
vt 0.303052 0.694352
vt 0.303052 0.318412
vt 0.328052 0.694352
vt 0.353052 0.694352
vt 0.353052 0.318412
vt 0.320537 0.486827
vt 0.258102 0.424392
vt 0.198001 0.424392
vt 0.149379 0.459718
vt 0.130807 0.516877
vt 0.149379 0.574036
vt 0.228052 0.614122
vt 0.285211 0.595550
vt 0.292724 0.596515
vt 0.203072 0.610714
vt 0.153088 0.574398
vt 0.133995 0.515639
vt 0.153088 0.456879
vt 0.203072 0.420563
vt 0.292724 0.434763
vt 0.329039 0.484747
vt 0.329039 0.546530
vn 0.000000 -1.000000 -0.000003
vn 0.000000 -1.000000 0.000001
vn 0.000000 -1.000000 0.000000
vn 0.000000 -1.000000 -0.000000
vn 0.000000 -1.000000 -0.000000
vn 0.000000 -1.000000 -0.000000
vn 0.000000 -1.000000 -0.000000
vn 0.000000 -1.000000 0.000000
vn 0.000000 -1.000000 0.000000
vn 0.000000 -1.000000 0.000000
vn 0.000000 -1.000000 0.000001
vn 0.000000 -1.000000 0.000000
vn 0.000000 -1.000000 -0.000000
vn 0.000000 -1.000000 0.000001
vn 0.000000 -1.000000 0.000000
vn 0.000000 -1.000000 0.000000
vn 0.000000 -1.000000 0.000000
vn 0.000000 -1.000000 0.000000
vn 0.000000 -1.000000 0.000000
vn 0.000000 -1.000000 0.000006
vn 0.696589 0.680835 -0.226335
vn 0.592554 0.680835 -0.430516
vn -0.000000 1.000000 0.000001
vn 0.430516 0.680835 -0.592554
vn 0.226335 0.680835 -0.696589
vn -0.000000 0.680835 -0.732437
vn -0.226336 0.680835 -0.696589
vn -0.430516 0.680835 -0.592554
vn -0.592554 0.680835 -0.430515
vn -0.696589 0.680835 -0.226336
vn -0.732437 0.680835 0.000000
vn -0.696589 0.680835 0.226336
vn -0.592554 0.680835 0.430515
vn -0.430515 0.680835 0.592554
vn -0.226336 0.680835 0.696589
vn 0.000000 0.680835 0.732437
vn 0.226336 0.680835 0.696589
vn 0.430516 0.680835 0.592554
vn 0.592554 0.680835 0.430516
vn 0.696589 0.680835 0.226336
vn 0.732437 0.680835 0.000001
vn 0.000000 -1.000000 0.000000
vn 0.000000 -1.000000 0.000000
vn 0.000000 -1.000000 0.000000
vn 0.000000 -1.000000 0.000000
vn 0.000000 -1.000000 -0.000000
vn 0.000000 -1.000000 -0.000000
vn 0.000000 -1.000000 0.000000
vn 0.000000 -1.000000 0.000000
vn 0.000000 -1.000000 -0.000000
vn 0.000000 -1.000000 -0.000000
vn 0.000000 -1.000000 0.000001
vn 0.000000 -1.000000 0.000000
vn 0.000000 -1.000000 -0.000000
vn 0.000000 -1.000000 0.000001
vn 0.000000 -1.000000 0.000000
vn 0.000000 -1.000000 0.000000
vn 0.000000 -1.000000 0.000001
vn 0.000000 -1.000000 -0.000002
vn 0.000000 -1.000000 0.000000
vn 0.000000 -1.000000 0.000000
vn 0.696589 0.680835 -0.226334
vn 0.592554 0.680835 -0.430516
vn -0.000000 1.000000 0.000001
vn 0.430515 0.680835 -0.592554
vn 0.226335 0.680835 -0.696589
vn -0.000000 0.680835 -0.732437
vn -0.226335 0.680835 -0.696589
vn -0.430516 0.680835 -0.592553
vn -0.592554 0.680835 -0.430515
vn -0.696589 0.680835 -0.226336
vn -0.732437 0.680835 0.000000
vn -0.696589 0.680835 0.226336
vn -0.592554 0.680835 0.430516
vn -0.430515 0.680835 0.592554
vn -0.226336 0.680835 0.696589
vn 0.000000 0.680835 0.732437
vn 0.226336 0.680835 0.696589
vn 0.430515 0.680835 0.592554
vn 0.592554 0.680835 0.430516
vn 0.696589 0.680835 0.226336
vn 0.732437 0.680835 0.000001
vn 0.951057 0.000000 -0.309017
vn 0.987361 -0.013429 -0.157921
vn 0.456728 0.004638 -0.889594
vn 0.451238 -0.004638 -0.892392
vn -0.158504 0.004744 -0.987347
vn -0.309018 0.000000 -0.951056
vn -0.809017 0.000000 -0.587785
vn -0.809017 0.000000 -0.587785
vn -1.000000 0.000000 -0.000000
vn -1.000000 0.000000 0.000000
vn -0.809017 0.000000 0.587785
vn -0.708580 -0.004744 0.705614
vn -0.159475 0.004638 0.987191
vn -0.153388 -0.004638 0.988155
vn 0.455853 0.004744 0.890043
vn 0.806900 -0.010628 0.590592
vn 0.951056 -0.000454 0.309017
vn 0.000000 -1.000000 0.000000
vn 0.000000 -1.000000 0.000000
vn 0.000000 -1.000000 0.000000
vn 0.000000 -1.000000 0.000000
vn 0.000000 -1.000000 0.000000
vn 0.000000 -1.000000 0.000000
vn 0.000000 -1.000000 0.000000
vn 0.000000 -1.000000 0.000000
vn 0.000000 1.000000 0.000000
vn 0.000000 1.000000 0.000000
vn 0.000000 1.000000 0.000000
vn 0.000000 1.000000 0.000000
vn 0.000000 1.000000 0.000000
vn 0.000000 1.000000 0.000000
vn 0.000000 1.000000 0.000000
vn 0.000000 1.000000 0.000000
vn 0.000000 1.000000 0.000000
s 1
g pasted__pCone3 group8
usemtl blinn7SG
f 1/1/1 20/20/2 2/2/3
f 20/20/2 19/19/4 2/2/3
f 19/19/4 18/18/5 2/2/3
f 18/18/5 17/17/6 2/2/3
f 17/17/6 16/16/7 2/2/3
f 16/16/7 15/15/8 2/2/3
f 15/15/8 14/14/9 2/2/3
f 14/14/9 13/13/10 2/2/3
f 13/13/10 12/12/11 2/2/3
f 12/12/11 11/11/12 2/2/3
f 11/11/12 10/10/13 2/2/3
f 10/10/13 9/9/14 2/2/3
f 9/9/14 8/8/15 2/2/3
f 8/8/15 7/7/16 2/2/3
f 7/7/16 6/6/17 2/2/3
f 6/6/17 5/5/18 2/2/3
f 5/5/18 4/4/19 2/2/3
f 4/4/19 3/3/20 2/2/3
s 2
f 1/21/21 2/22/22 21/42/23
f 2/22/22 3/23/24 21/42/23
f 3/23/24 4/24/25 21/42/23
f 4/24/25 5/25/26 21/42/23
f 5/25/26 6/26/27 21/42/23
f 6/26/27 7/27/28 21/42/23
f 7/27/28 8/28/29 21/42/23
f 8/28/29 9/29/30 21/42/23
f 9/29/30 10/30/31 21/42/23
f 10/30/31 11/31/32 21/42/23
f 11/31/32 12/32/33 21/42/23
f 12/32/33 13/33/34 21/42/23
f 13/33/34 14/34/35 21/42/23
f 14/34/35 15/35/36 21/42/23
f 15/35/36 16/36/37 21/42/23
f 16/36/37 17/37/38 21/42/23
f 17/37/38 18/38/39 21/42/23
f 18/38/39 19/39/40 21/42/23
f 19/39/40 20/40/41 21/42/23
f 20/40/41 1/41/21 21/42/23
s 3
f 22/43/42 41/44/43 23/62/44
f 41/44/43 40/45/45 23/62/44
f 40/45/45 39/46/46 23/62/44
f 39/46/46 38/47/47 23/62/44
f 38/47/47 37/48/48 23/62/44
f 37/48/48 36/49/49 23/62/44
f 36/49/49 35/50/50 23/62/44
f 35/50/50 34/51/51 23/62/44
f 34/51/51 33/52/52 23/62/44
f 33/52/52 32/53/53 23/62/44
f 32/53/53 31/54/54 23/62/44
f 31/54/54 30/55/55 23/62/44
f 30/55/55 29/56/56 23/62/44
f 29/56/56 28/57/57 23/62/44
f 28/57/57 27/58/58 23/62/44
f 27/58/58 26/59/59 23/62/44
f 26/59/59 25/60/60 23/62/44
f 25/60/60 24/61/61 23/62/44
s 4
f 22/63/62 23/64/63 42/65/64
f 23/64/63 24/66/65 42/65/64
f 24/66/65 25/67/66 42/65/64
f 25/67/66 26/68/67 42/65/64
f 26/68/67 27/69/68 42/65/64
f 27/69/68 28/70/69 42/65/64
f 28/70/69 29/71/70 42/65/64
f 29/71/70 30/72/71 42/65/64
f 30/72/71 31/73/72 42/65/64
f 31/73/72 32/74/73 42/65/64
f 32/74/73 33/75/74 42/65/64
f 33/75/74 34/76/75 42/65/64
f 34/76/75 35/77/76 42/65/64
f 35/77/76 36/78/77 42/65/64
f 36/78/77 37/79/78 42/65/64
f 37/79/78 38/80/79 42/65/64
f 38/80/79 39/81/80 42/65/64
f 39/81/80 40/82/81 42/65/64
f 40/82/81 41/83/82 42/65/64
f 41/83/82 22/84/62 42/65/64
s 5
f 58/87/83 59/85/84 50/86/85
f 59/85/84 43/88/86 50/86/85
f 50/86/85 43/88/86 51/89/87
f 43/88/86 44/90/88 51/89/87
f 51/89/87 44/90/88 52/91/89
f 44/90/88 45/92/90 52/91/89
f 52/91/89 45/92/90 53/93/91
f 45/92/90 46/94/92 53/93/91
f 53/93/91 46/94/92 54/95/93
f 46/94/92 47/96/94 54/95/93
f 54/95/93 47/96/94 55/97/95
f 47/96/94 48/98/96 55/97/95
f 55/97/95 48/98/96 56/99/97
f 48/98/96 49/100/98 56/99/97
f 56/99/97 49/100/98 57/101/99
f 49/100/98 59/103/84 57/101/99
f 57/101/99 59/103/84 58/102/83
s 6
f 44/106/100 43/105/101 59/104/102
f 45/107/103 44/106/100 59/104/102
f 46/108/104 45/107/103 59/104/102
f 47/109/105 46/108/104 59/104/102
f 48/110/106 47/109/105 59/104/102
f 49/111/107 48/110/106 59/104/102
s 7
f 58/120/108 50/112/109 52/114/110
f 50/112/109 51/113/111 52/114/110
f 53/115/112 54/116/113 52/114/110
f 54/116/113 55/117/114 52/114/110
f 55/117/114 56/118/115 52/114/110
f 56/118/115 57/119/116 52/114/110
f 57/119/116 58/120/108 52/114/110
