# This file uses centimeters as units for non-parametric coordinates.

mtllib treelow.mtl
g default
v -1.500000 3.001413 1.500000
v 1.500000 3.001413 1.500000
v -1.500000 4.708378 1.500000
v 1.500000 4.708378 1.500000
v -1.500000 4.708378 -1.500000
v 1.500000 4.708378 -1.500000
v -1.500000 3.001413 -1.500000
v 1.500000 3.001413 -1.500000
v -1.500000 0.725460 1.500000
v 1.500000 0.725460 1.500000
v -1.500000 2.432425 1.500000
v 1.500000 2.432425 1.500000
v -1.500000 2.432425 -1.500000
v 1.500000 2.432425 -1.500000
v -1.500000 0.725460 -1.500000
v 1.500000 0.725460 -1.500000
v -0.250000 -4.708378 0.250000
v 0.250000 -4.708378 0.250000
v -0.250000 3.826446 0.250000
v 0.250000 3.826446 0.250000
v -0.250000 3.826446 -0.250000
v 0.250000 3.826446 -0.250000
v -0.250000 -4.708378 -0.250000
v 0.250000 -4.708378 -0.250000
vt 0.205572 0.510881
vt 0.296216 0.510881
vt 0.296216 0.601524
vt 0.205572 0.601524
vt 0.296216 0.692167
vt 0.205572 0.692167
vt 0.296216 0.782811
vt 0.205572 0.782811
vt 0.296216 0.873454
vt 0.205572 0.873454
vt 0.386859 0.510881
vt 0.386859 0.601524
vt 0.114929 0.510881
vt 0.114929 0.601524
vt 0.205572 0.510881
vt 0.296216 0.510881
vt 0.296216 0.601524
vt 0.205572 0.601524
vt 0.296216 0.692167
vt 0.205572 0.692167
vt 0.296216 0.782811
vt 0.205572 0.782811
vt 0.296216 0.873454
vt 0.205572 0.873454
vt 0.386859 0.510881
vt 0.386859 0.601524
vt 0.114929 0.510881
vt 0.114929 0.601524
vt 0.698860 0.121083
vt 0.785117 0.121083
vt 0.785117 0.207341
vt 0.698860 0.207341
vt 0.785117 0.293598
vt 0.698860 0.293598
vt 0.785117 0.379855
vt 0.698860 0.379855
vt 0.785117 0.466113
vt 0.698860 0.466113
vt 0.871374 0.121083
vt 0.871374 0.207341
vt 0.612603 0.121083
vt 0.612603 0.207341
vn 0.000000 0.000000 1.000000
vn 0.000000 0.000000 1.000000
vn 0.000000 0.000000 1.000000
vn 0.000000 0.000000 1.000000
vn 0.000000 1.000000 0.000000
vn 0.000000 1.000000 0.000000
vn 0.000000 1.000000 0.000000
vn 0.000000 1.000000 0.000000
vn 0.000000 0.000000 -1.000000
vn 0.000000 0.000000 -1.000000
vn 0.000000 0.000000 -1.000000
vn 0.000000 0.000000 -1.000000
vn 0.000000 -1.000000 0.000000
vn 0.000000 -1.000000 0.000000
vn 0.000000 -1.000000 0.000000
vn 0.000000 -1.000000 0.000000
vn 1.000000 0.000000 0.000000
vn 1.000000 0.000000 0.000000
vn 1.000000 0.000000 0.000000
vn 1.000000 0.000000 0.000000
vn -1.000000 0.000000 0.000000
vn -1.000000 0.000000 0.000000
vn -1.000000 0.000000 0.000000
vn -1.000000 0.000000 0.000000
vn 0.000000 0.000000 1.000000
vn 0.000000 0.000000 1.000000
vn 0.000000 0.000000 1.000000
vn 0.000000 0.000000 1.000000
vn 0.000000 1.000000 0.000000
vn 0.000000 1.000000 0.000000
vn 0.000000 1.000000 0.000000
vn 0.000000 1.000000 0.000000
vn 0.000000 0.000000 -1.000000
vn 0.000000 0.000000 -1.000000
vn 0.000000 0.000000 -1.000000
vn 0.000000 0.000000 -1.000000
vn 0.000000 -1.000000 0.000000
vn 0.000000 -1.000000 0.000000
vn 0.000000 -1.000000 0.000000
vn 0.000000 -1.000000 0.000000
vn 1.000000 0.000000 0.000000
vn 1.000000 0.000000 0.000000
vn 1.000000 0.000000 0.000000
vn 1.000000 0.000000 0.000000
vn -1.000000 0.000000 0.000000
vn -1.000000 0.000000 0.000000
vn -1.000000 0.000000 0.000000
vn -1.000000 0.000000 0.000000
vn 0.000000 0.000000 1.000000
vn 0.000000 0.000000 1.000000
vn 0.000000 0.000000 1.000000
vn 0.000000 0.000000 1.000000
vn 0.000000 1.000000 0.000000
vn 0.000000 1.000000 0.000000
vn 0.000000 1.000000 0.000000
vn 0.000000 1.000000 0.000000
vn 0.000000 0.000000 -1.000000
vn 0.000000 0.000000 -1.000000
vn 0.000000 0.000000 -1.000000
vn 0.000000 0.000000 -1.000000
vn 0.000000 -1.000000 0.000000
vn 0.000000 -1.000000 0.000000
vn 0.000000 -1.000000 0.000000
vn 0.000000 -1.000000 0.000000
vn 1.000000 0.000000 0.000000
vn 1.000000 0.000000 0.000000
vn 1.000000 0.000000 0.000000
vn 1.000000 0.000000 0.000000
vn -1.000000 0.000000 0.000000
vn -1.000000 0.000000 0.000000
vn -1.000000 0.000000 0.000000
vn -1.000000 0.000000 0.000000
s 1
g pasted__polySurface1 group10
usemtl blinn9SG
f 1/1/1 2/2/2 3/4/3
f 3/4/3 2/2/2 4/3/4
s 2
f 3/4/5 4/3/6 5/6/7
f 5/6/7 4/3/6 6/5/8
s 3
f 5/6/9 6/5/10 7/8/11
f 7/8/11 6/5/10 8/7/12
s 4
f 7/8/13 8/7/14 1/10/15
f 1/10/15 8/7/14 2/9/16
s 5
f 2/2/17 8/11/18 4/3/19
f 4/3/19 8/11/18 6/12/20
s 6
f 7/13/21 1/1/22 5/14/23
f 5/14/23 1/1/22 3/4/24
s 7
f 9/15/25 10/16/26 11/18/27
f 11/18/27 10/16/26 12/17/28
s 8
f 11/18/29 12/17/30 13/20/31
f 13/20/31 12/17/30 14/19/32
s 9
f 13/20/33 14/19/34 15/22/35
f 15/22/35 14/19/34 16/21/36
s 10
f 15/22/37 16/21/38 9/24/39
f 9/24/39 16/21/38 10/23/40
s 11
f 10/16/41 16/25/42 12/17/43
f 12/17/43 16/25/42 14/26/44
s 12
f 15/27/45 9/15/46 13/28/47
f 13/28/47 9/15/46 11/18/48
s 13
f 17/29/49 18/30/50 19/32/51
f 19/32/51 18/30/50 20/31/52
s 14
f 19/32/53 20/31/54 21/34/55
f 21/34/55 20/31/54 22/33/56
s 15
f 21/34/57 22/33/58 23/36/59
f 23/36/59 22/33/58 24/35/60
s 16
f 23/36/61 24/35/62 17/38/63
f 17/38/63 24/35/62 18/37/64
s 17
f 18/30/65 24/39/66 20/31/67
f 20/31/67 24/39/66 22/40/68
s 18
f 23/41/69 17/29/70 21/42/71
f 21/42/71 17/29/70 19/32/72
