# This file uses centimeters as units for non-parametric coordinates.

mtllib zombiebody.mtl
g default
v -0.382329 -1.500000 0.252251
v -0.149804 -1.500000 0.252251
v -0.382329 0.000000 0.049648
v -0.149804 0.000000 0.049648
v -0.382329 0.000000 -0.121684
v -0.149804 0.000000 -0.121684
v -0.382329 -1.500000 -0.247749
v -0.149804 -1.500000 -0.247749
v -0.204271 -1.368130 0.000122
v -0.327862 -1.368130 0.000122
v -0.327862 -1.368130 -0.103675
v -0.204271 -1.368130 -0.103675
v -0.204271 -0.958527 0.000122
v -0.327862 -0.958527 0.000122
v -0.327862 -0.958527 -0.103675
v -0.204271 -0.958527 -0.103675
v -0.068104 -0.509553 0.175712
v -0.464029 -0.509553 0.175712
v -0.464029 -0.509553 -0.220735
v -0.068104 -0.509553 -0.220735
v -0.530514 0.000000 0.252251
v 0.516897 0.000000 0.252251
v -0.414772 1.500000 0.202726
v 0.407964 1.500000 0.202726
v -0.414772 1.500000 -0.202726
v 0.407964 1.500000 -0.202726
v -0.530514 0.000000 -0.247749
v 0.516897 0.000000 -0.247749
v 0.584980 1.021864 0.364809
v -0.584980 1.021864 0.364809
v -0.584980 1.021864 -0.364809
v 0.584980 1.021864 -0.364809
v 0.312647 0.627403 0.189219
v -0.326263 0.627403 0.189219
v -0.326263 0.627403 -0.202726
v 0.312647 0.627403 -0.202726
v 0.312647 0.322205 0.189219
v -0.326263 0.322205 0.189219
v -0.326263 0.322205 -0.202726
v 0.312647 0.322205 -0.202726
v -0.003673 -0.224675 0.252251
v -0.003673 0.322205 0.189219
v -0.003673 0.627403 0.189219
v -0.003673 1.021864 0.364809
v -0.003673 1.500000 0.202726
v -0.003673 1.500000 -0.202726
v -0.003673 1.021864 -0.364809
v -0.003673 0.627403 -0.202726
v -0.003673 0.322205 -0.202726
v -0.003673 -0.224675 -0.247749
v 0.167671 -1.500000 0.252251
v 0.400196 -1.500000 0.252251
v 0.167671 0.000000 0.049648
v 0.400196 0.000000 0.049648
v 0.167671 0.000000 -0.121684
v 0.400196 0.000000 -0.121684
v 0.167671 -1.500000 -0.247749
v 0.400196 -1.500000 -0.247749
v 0.345729 -1.368130 0.000122
v 0.222138 -1.368130 0.000122
v 0.222138 -1.368130 -0.103675
v 0.345729 -1.368130 -0.103675
v 0.345729 -0.958527 0.000122
v 0.222138 -0.958527 0.000122
v 0.222138 -0.958527 -0.103675
v 0.345729 -0.958527 -0.103675
v 0.481896 -0.509553 0.175712
v 0.085971 -0.509553 0.175712
v 0.085971 -0.509553 -0.220735
v 0.481896 -0.509553 -0.220735
vt 0.844487 0.096735
vt 0.902555 0.096735
vt 0.844487 0.154803
vt 0.902555 0.154803
vt 0.844487 0.212871
vt 0.902555 0.212871
vt 0.844487 0.270940
vt 0.902555 0.270940
vt 0.844487 0.329008
vt 0.902555 0.329008
vt 0.960623 0.096735
vt 0.960623 0.154803
vt 0.786418 0.096735
vt 0.786418 0.154803
vt 0.902555 0.106894
vt 0.844487 0.106894
vt 0.786418 0.106894
vt 0.844487 0.260780
vt 0.902555 0.260780
vt 0.960623 0.106894
vt 0.902555 0.123448
vt 0.844487 0.123448
vt 0.786418 0.123448
vt 0.844487 0.244226
vt 0.902555 0.244226
vt 0.960623 0.123448
vt 0.902555 0.135077
vt 0.844487 0.135077
vt 0.786418 0.135077
vt 0.844487 0.232597
vt 0.902555 0.232597
vt 0.960623 0.135077
vt 0.845866 0.629182
vt 0.877661 0.629182
vt 0.877661 0.658409
vt 0.845866 0.658409
vt 0.845866 0.692732
vt 0.877661 0.692732
vt 0.877661 0.756281
vt 0.845866 0.756281
vt 0.845866 0.790605
vt 0.877661 0.790605
vt 0.877661 0.819831
vt 0.845866 0.819831
vt 0.877661 0.883380
vt 0.845866 0.883380
vt 0.909416 0.629182
vt 0.972965 0.629182
vt 0.972965 0.658409
vt 0.909416 0.658409
vt 0.782316 0.629182
vt 0.782316 0.658409
vt 0.845866 0.674205
vt 0.877661 0.674205
vt 0.782316 0.674205
vt 0.782316 0.692732
vt 0.877661 0.774808
vt 0.845866 0.774808
vt 0.909416 0.674205
vt 0.972965 0.674205
vt 0.972965 0.692732
vt 0.909416 0.692732
vt 0.845866 0.664704
vt 0.877661 0.664704
vt 0.782316 0.664704
vt 0.877661 0.784309
vt 0.845866 0.784309
vt 0.909416 0.664704
vt 0.972965 0.664704
vt 0.909416 0.756281
vt 0.909416 0.774808
vt 0.909416 0.784309
vt 0.909416 0.790605
vt 0.909416 0.819831
vt 0.909416 0.883380
vt 0.844487 0.096735
vt 0.902555 0.096735
vt 0.902555 0.106894
vt 0.844487 0.106894
vt 0.844487 0.154803
vt 0.902555 0.154803
vt 0.902555 0.212871
vt 0.844487 0.212871
vt 0.844487 0.260780
vt 0.902555 0.260780
vt 0.902555 0.270940
vt 0.844487 0.270940
vt 0.902555 0.329008
vt 0.844487 0.329008
vt 0.960623 0.096735
vt 0.960623 0.106894
vt 0.786418 0.096735
vt 0.786418 0.106894
vt 0.902555 0.123448
vt 0.844487 0.123448
vt 0.786418 0.123448
vt 0.844487 0.244226
vt 0.902555 0.244226
vt 0.960623 0.123448
vt 0.902555 0.135077
vt 0.844487 0.135077
vt 0.786418 0.135077
vt 0.844487 0.232597
vt 0.902555 0.232597
vt 0.960623 0.135077
vt 0.786418 0.154803
vt 0.960623 0.154803
vn 0.000000 0.886117 0.463462
vn 0.000000 0.886117 0.463462
vn 0.000000 0.535343 0.844635
vn 0.000000 0.452087 0.891974
vn 0.000000 1.000000 0.000000
vn 0.000000 1.000000 0.000000
vn 0.000000 1.000000 0.000000
vn 0.000000 1.000000 0.000000
vn 0.000000 0.286922 -0.957954
vn 0.000000 0.365247 -0.930911
vn 0.000000 0.737658 -0.675175
vn 0.000000 0.737658 -0.675175
vn 0.000000 -1.000000 0.000000
vn 0.000000 -1.000000 0.000000
vn 0.000000 -1.000000 0.000000
vn 0.000000 -1.000000 0.000000
vn 0.924265 0.381753 0.000000
vn 0.924265 0.381753 0.000000
vn 0.962125 0.272607 0.000000
vn 0.991050 0.133488 0.000000
vn -0.924265 0.381753 0.000000
vn -0.962125 0.272607 0.000000
vn -0.924265 0.381752 0.000000
vn -0.991050 0.133488 0.000000
vn 0.000000 -0.215025 0.976609
vn 0.000000 -0.268227 0.963356
vn -0.985939 -0.167104 0.000000
vn -0.975434 -0.220293 0.000000
vn 0.000000 -0.183468 -0.983026
vn 0.000000 -0.145569 -0.989348
vn 0.975434 -0.220293 0.000000
vn 0.985939 -0.167104 0.000000
vn 0.000000 -0.018188 0.999835
vn 0.000000 -0.056318 0.998413
vn -0.998563 -0.053589 0.000000
vn -0.998939 -0.046048 0.000000
vn 0.000000 -0.021541 -0.999768
vn 0.000000 0.006328 -0.999980
vn 0.998563 -0.053589 0.000000
vn 0.998939 -0.046048 0.000000
vn 0.000000 0.240161 0.970733
vn 0.000000 0.240161 0.970733
vn -0.987389 0.158315 0.000000
vn -0.987389 0.158315 0.000000
vn 0.000000 0.190816 -0.981626
vn 0.000000 0.190816 -0.981626
vn 0.987389 0.158315 0.000000
vn 0.987389 0.158315 0.000000
vn 0.000090 0.114500 0.993423
vn 0.000076 0.088909 0.996040
vn 0.041551 0.125960 0.991165
vn 0.000000 0.114359 0.993439
vn 0.000000 1.000000 0.000000
vn 0.000000 1.000000 0.000000
vn 0.000000 1.000000 0.000000
vn 0.000000 1.000000 0.000000
vn 0.000000 0.082013 -0.996631
vn 0.000054 0.063600 -0.997976
vn 0.029800 0.090375 -0.995462
vn 0.000065 0.082049 -0.996628
vn -0.392276 -0.919848 0.000000
vn -0.000000 -1.000000 0.000000
vn -0.392276 -0.919848 0.000000
vn 0.000000 -1.000000 0.000000
vn 0.844597 0.535403 0.000000
vn 0.844597 0.535402 0.000000
vn 0.939489 0.342578 0.000000
vn 0.947649 0.319314 0.000000
vn -0.844597 0.535403 0.000000
vn -0.939489 0.342578 0.000000
vn -0.844597 0.535402 0.000000
vn -0.947649 0.319314 0.000000
vn 0.000000 0.020815 0.999783
vn 0.000000 -0.002888 0.999996
vn 0.000000 0.321045 0.947064
vn 0.000000 0.321045 0.947064
vn -0.999109 -0.042206 0.000000
vn -0.989775 -0.142641 0.000000
vn -0.942087 0.335368 0.000000
vn -0.942087 0.335368 0.000000
vn 0.000000 0.321044 -0.947064
vn 0.000000 0.012428 -0.999923
vn 0.000000 0.321045 -0.947064
vn 0.000000 0.035653 -0.999364
vn 0.995030 -0.099579 0.000000
vn 0.994848 -0.101382 0.000000
vn 0.937794 0.347193 0.000000
vn 0.937794 0.347193 0.000000
vn 0.000000 -0.243416 0.969922
vn 0.000000 -0.303519 0.952825
vn -0.928428 -0.371512 0.000000
vn -0.906462 -0.422288 0.000000
vn 0.000000 -0.282452 -0.959281
vn 0.000000 -0.225683 -0.974201
vn 0.921722 -0.387852 0.000000
vn 0.898134 -0.439722 0.000000
vn -0.042233 0.125668 0.991173
vn 0.000000 0.114359 0.993439
vn 0.000000 -0.306121 0.951993
vn 0.000000 0.023215 0.999731
vn 0.000000 0.321044 0.947064
vn 0.000000 1.000000 0.000000
vn 0.000000 1.000000 0.000000
vn 0.000000 0.321044 -0.947064
vn 0.000000 0.037987 -0.999278
vn 0.000000 -0.284907 -0.958555
vn 0.000000 0.082013 -0.996631
vn -0.030289 0.090165 -0.995466
vn 0.396263 -0.918137 0.000000
vn 0.396263 -0.918137 0.000000
vn 0.000000 0.886117 0.463462
vn 0.000000 0.886117 0.463462
vn 0.000000 0.535343 0.844634
vn 0.000000 0.452088 0.891974
vn 0.000000 1.000000 0.000000
vn 0.000000 1.000000 0.000000
vn 0.000000 1.000000 0.000000
vn 0.000000 1.000000 0.000000
vn 0.000000 0.286922 -0.957954
vn 0.000000 0.365247 -0.930911
vn 0.000000 0.737658 -0.675175
vn 0.000000 0.737658 -0.675175
vn 0.000000 -1.000000 0.000000
vn 0.000000 -1.000000 0.000000
vn 0.000000 -1.000000 0.000000
vn 0.000000 -1.000000 0.000000
vn 0.924265 0.381753 0.000000
vn 0.924265 0.381752 0.000000
vn 0.962125 0.272607 0.000000
vn 0.991050 0.133488 0.000000
vn -0.924265 0.381753 0.000000
vn -0.962125 0.272607 0.000000
vn -0.924265 0.381752 0.000000
vn -0.991050 0.133488 0.000000
vn 0.000000 -0.215025 0.976609
vn 0.000000 -0.268227 0.963356
vn -0.985939 -0.167104 0.000000
vn -0.975434 -0.220293 0.000000
vn 0.000000 -0.183468 -0.983026
vn 0.000000 -0.145569 -0.989348
vn 0.975434 -0.220293 0.000000
vn 0.985939 -0.167104 0.000000
vn 0.000000 -0.018188 0.999835
vn 0.000000 -0.056318 0.998413
vn -0.998563 -0.053589 0.000000
vn -0.998939 -0.046048 0.000000
vn 0.000000 -0.021541 -0.999768
vn 0.000000 0.006328 -0.999980
vn 0.998563 -0.053589 0.000000
vn 0.998939 -0.046048 0.000000
vn 0.000000 0.240161 0.970733
vn 0.000000 0.240161 0.970733
vn -0.987389 0.158315 0.000000
vn -0.987389 0.158315 0.000000
vn 0.000000 0.190816 -0.981626
vn 0.000000 0.190816 -0.981626
vn 0.987389 0.158315 0.000000
vn 0.987389 0.158315 0.000000
s 1
g pasted__pCube14
usemtl blinn1SG
f 1/1/1 2/2/2 10/16/3
f 10/16/3 2/2/2 9/15/4
s 2
f 3/3/5 4/4/6 5/5/7
f 5/5/7 4/4/6 6/6/8
s 3
f 11/18/9 12/19/10 7/7/11
f 7/7/11 12/19/10 8/8/12
s 4
f 7/7/13 8/8/14 1/9/15
f 1/9/15 8/8/14 2/10/16
s 5
f 2/2/17 8/11/18 9/15/19
f 9/15/19 8/11/18 12/20/20
s 6
f 1/1/21 10/16/22 7/13/23
f 7/13/23 10/16/22 11/17/24
s 1
f 10/16/3 9/15/4 14/22/25
f 14/22/25 9/15/4 13/21/26
s 6
f 11/17/24 10/16/22 15/23/27
f 15/23/27 10/16/22 14/22/28
s 3
f 15/24/29 16/25/30 11/18/9
f 11/18/9 16/25/30 12/19/10
s 5
f 9/15/19 12/20/20 13/21/31
f 13/21/31 12/20/20 16/26/32
s 1
f 14/22/25 13/21/26 18/28/33
f 18/28/33 13/21/26 17/27/34
s 6
f 15/23/27 14/22/28 19/29/35
f 19/29/35 14/22/28 18/28/36
s 3
f 19/30/37 20/31/38 15/24/29
f 15/24/29 20/31/38 16/25/30
s 5
f 16/26/32 20/32/39 13/21/31
f 13/21/31 20/32/39 17/27/40
s 1
f 18/28/33 17/27/34 3/3/41
f 3/3/41 17/27/34 4/4/42
s 6
f 18/28/36 3/3/43 19/29/35
f 19/29/35 3/3/43 5/14/44
s 3
f 5/5/45 6/6/46 19/30/37
f 19/30/37 6/6/46 20/31/38
s 5
f 17/27/40 20/32/39 4/4/47
f 4/4/47 20/32/39 6/12/48
s 9
f 41/34/49 42/35/50 21/33/51
f 21/33/51 42/35/50 38/36/52
s 10
f 23/37/53 45/38/54 25/40/55
f 25/40/55 45/38/54 46/39/56
s 11
f 39/41/57 49/42/58 27/44/59
f 27/44/59 49/42/58 50/43/60
s 12
f 27/44/61 50/43/62 21/46/63
f 21/46/63 50/43/62 41/45/64
s 13
f 22/47/65 28/48/66 37/50/67
f 37/50/67 28/48/66 40/49/68
s 14
f 21/33/69 38/36/70 27/51/71
f 27/51/71 38/36/70 39/52/72
s 9
f 30/53/73 44/54/74 23/37/75
f 23/37/75 44/54/74 45/38/76
s 14
f 31/55/77 30/53/78 25/56/79
f 25/56/79 30/53/78 23/37/80
s 11
f 46/39/81 47/57/82 25/40/83
f 25/40/83 47/57/82 31/58/84
s 13
f 29/59/85 32/60/86 24/62/87
f 24/62/87 32/60/86 26/61/88
s 9
f 43/64/89 44/54/74 34/63/90
f 34/63/90 44/54/74 30/53/73
s 14
f 35/65/91 34/63/92 31/55/77
f 31/55/77 34/63/92 30/53/78
s 11
f 31/58/84 47/57/82 35/67/93
f 35/67/93 47/57/82 48/66/94
s 13
f 36/69/95 32/60/86 33/68/96
f 33/68/96 32/60/86 29/59/85
s 9
f 38/36/52 42/35/50 34/63/90
f 34/63/90 42/35/50 43/64/89
s 14
f 39/52/72 38/36/70 35/65/91
f 35/65/91 38/36/70 34/63/92
s 11
f 35/67/93 48/66/94 39/41/57
f 39/41/57 48/66/94 49/42/58
s 13
f 37/50/67 40/49/68 33/68/96
f 33/68/96 40/49/68 36/69/95
s 9
f 41/34/49 22/47/97 42/35/50
f 42/35/50 22/47/97 37/50/98
f 43/64/89 42/35/50 33/68/99
f 33/68/99 42/35/50 37/50/98
f 43/64/89 33/68/99 44/54/74
f 44/54/74 33/68/99 29/59/100
f 45/38/76 44/54/74 24/62/101
f 24/62/101 44/54/74 29/59/100
s 10
f 46/39/56 45/38/54 26/70/102
f 26/70/102 45/38/54 24/62/103
s 11
f 46/39/81 26/70/104 47/57/82
f 47/57/82 26/70/104 32/71/105
f 48/66/94 47/57/82 36/72/106
f 36/72/106 47/57/82 32/71/105
f 49/42/58 48/66/94 40/73/107
f 40/73/107 48/66/94 36/72/106
f 50/43/60 49/42/58 28/74/108
f 28/74/108 49/42/58 40/73/107
s 12
f 41/45/64 50/43/62 22/75/109
f 22/75/109 50/43/62 28/74/110
s 21
f 51/76/111 52/77/112 60/79/113
f 60/79/113 52/77/112 59/78/114
s 22
f 53/80/115 54/81/116 55/83/117
f 55/83/117 54/81/116 56/82/118
s 23
f 61/84/119 62/85/120 57/87/121
f 57/87/121 62/85/120 58/86/122
s 24
f 57/87/123 58/86/124 51/89/125
f 51/89/125 58/86/124 52/88/126
s 25
f 52/77/127 58/90/128 59/78/129
f 59/78/129 58/90/128 62/91/130
s 26
f 51/76/131 60/79/132 57/92/133
f 57/92/133 60/79/132 61/93/134
s 21
f 60/79/113 59/78/114 64/95/135
f 64/95/135 59/78/114 63/94/136
s 26
f 61/93/134 60/79/132 65/96/137
f 65/96/137 60/79/132 64/95/138
s 23
f 65/97/139 66/98/140 61/84/119
f 61/84/119 66/98/140 62/85/120
s 25
f 59/78/129 62/91/130 63/94/141
f 63/94/141 62/91/130 66/99/142
s 21
f 64/95/135 63/94/136 68/101/143
f 68/101/143 63/94/136 67/100/144
s 26
f 65/96/137 64/95/138 69/102/145
f 69/102/145 64/95/138 68/101/146
s 23
f 69/103/147 70/104/148 65/97/139
f 65/97/139 70/104/148 66/98/140
s 25
f 66/99/142 70/105/149 63/94/141
f 63/94/141 70/105/149 67/100/150
s 21
f 68/101/143 67/100/144 53/80/151
f 53/80/151 67/100/144 54/81/152
s 26
f 68/101/146 53/80/153 69/102/145
f 69/102/145 53/80/153 55/106/154
s 23
f 55/83/155 56/82/156 69/103/147
f 69/103/147 56/82/156 70/104/148
s 25
f 67/100/150 70/105/149 54/81/157
f 54/81/157 70/105/149 56/107/158
