# This file uses centimeters as units for non-parametric coordinates.

mtllib houseroof.mtl
g default
v -3.999999 -2.121320 -4.000000
v -4.000000 -2.121320 4.000000
v 4.000000 -2.121320 4.000000
v 4.000000 -2.121320 -4.000000
v 0.000000 2.121320 0.000000
vt 0.791193 -0.002986
vt 0.993145 0.198966
vt 0.589242 0.198966
vt 0.791193 0.400918
vt 0.614547 0.612379
vt 0.708874 0.612379
vt 0.803201 0.989688
vt 0.803201 0.612379
vt 0.897529 0.612379
vt 0.991856 0.612379
vn 0.000000 -1.000000 0.000000
vn 0.000000 -1.000000 0.000000
vn 0.000000 -1.000000 0.000000
vn 0.000000 -1.000000 0.000000
vn 0.000000 -1.000000 0.000000
vn 0.000000 -1.000000 0.000000
vn -0.727607 0.685994 -0.000000
vn -0.727607 0.685994 -0.000000
vn -0.727607 0.685994 -0.000000
vn 0.000000 0.685994 0.727607
vn 0.000000 0.685994 0.727607
vn 0.000000 0.685994 0.727607
vn 0.727607 0.685994 0.000000
vn 0.727607 0.685994 0.000000
vn 0.727607 0.685994 0.000000
vn 0.000000 0.685995 -0.727607
vn 0.000000 0.685995 -0.727607
vn 0.000000 0.685995 -0.727607
s off
g initialShadingGroup pPyramid3
f 1/1/1 4/2/2 2/3/3
f 2/3/4 4/2/5 3/4/6
f 1/5/7 2/6/8 5/7/9
f 2/6/10 3/8/11 5/7/12
f 3/8/13 4/9/14 5/7/15
f 4/9/16 1/10/17 5/7/18
