# This file uses centimeters as units for non-parametric coordinates.

mtllib treehigh.mtl
g default
v 2.282537 2.097794 -0.741641
v 1.941642 2.097794 -1.410685
v 1.410686 2.097794 -1.941641
v 0.741641 2.097794 -2.282537
v 0.000000 2.097794 -2.400001
v -0.741641 2.097794 -2.282536
v -1.410685 2.097794 -1.941641
v -1.941641 2.097794 -1.410684
v -2.282536 2.097794 -0.741641
v -2.400000 2.097794 0.000000
v -2.282536 2.097794 0.741642
v -1.941641 2.097794 1.410685
v -1.410685 2.097794 1.941641
v -0.741641 2.097794 2.282536
v 0.000000 2.097794 2.400001
v 0.741641 2.097794 2.282536
v 1.410685 2.097794 1.941641
v 1.941641 2.097794 1.410685
v 2.282536 2.097794 0.741642
v 2.400000 2.097794 0.000000
v 0.000000 4.679696 0.000000
v 2.282537 -0.053790 -0.741641
v 1.941642 -0.053790 -1.410685
v 1.410686 -0.053790 -1.941641
v 0.741641 -0.053790 -2.282537
v 0.000000 -0.053790 -2.400001
v -0.741641 -0.053790 -2.282536
v -1.410685 -0.053790 -1.941641
v -1.941641 -0.053790 -1.410684
v -2.282536 -0.053790 -0.741641
v -2.400000 -0.053790 0.000000
v -2.282536 -0.053790 0.741642
v -1.941641 -0.053790 1.410685
v -1.410685 -0.053790 1.941641
v -0.741641 -0.053790 2.282536
v 0.000000 -0.053790 2.400001
v 0.741641 -0.053790 2.282536
v 1.410685 -0.053790 1.941641
v 1.941641 -0.053790 1.410685
v 2.282536 -0.053790 0.741642
v 2.400000 -0.053790 0.000000
v 0.000000 2.528112 0.000000
v 0.594411 -4.679696 -0.193136
v 0.505636 -4.679696 -0.367365
v 0.367366 -4.679696 -0.505636
v 0.193136 -4.679696 -0.594410
v 0.000000 -4.679696 -0.625000
v -0.193135 -4.679696 -0.594410
v -0.367366 -4.679696 -0.505636
v -0.505636 -4.679696 -0.367365
v -0.594410 -4.679696 -0.193135
v -0.625000 -4.679696 0.000000
v -0.594410 -4.679696 0.193136
v -0.505635 -4.679696 0.367366
v -0.367366 -4.679696 0.505636
v -0.193135 -4.679696 0.594410
v 0.000000 -4.679696 0.625000
v 0.193136 -4.679696 0.594410
v 0.367366 -4.679696 0.505636
v 0.505636 -4.679696 0.367366
v 0.594411 -4.679696 0.193136
v 0.625000 -4.679696 0.000000
v 0.594411 3.388745 -0.193136
v 0.505636 3.388745 -0.367365
v 0.367366 3.388745 -0.505636
v 0.193136 3.388745 -0.594410
v 0.000000 3.388745 -0.625000
v -0.193135 3.388745 -0.594410
v -0.367366 3.388745 -0.505636
v -0.505636 3.388745 -0.367365
v -0.594410 3.388745 -0.193135
v -0.625000 3.388745 0.000000
v -0.594410 3.388745 0.193136
v -0.505635 3.388745 0.367366
v -0.367366 3.388745 0.505636
v -0.193135 3.388745 0.594410
v 0.000000 3.388745 0.625000
v 0.193136 3.388745 0.594410
v 0.367366 3.388745 0.505636
v 0.505636 3.388745 0.367366
v 0.594411 3.388745 0.193136
v 0.625000 3.388745 0.000000
v 0.000000 -4.679696 0.000000
v 0.000000 3.388745 0.000000
vt 0.910943 0.660419
vt 0.901221 0.641338
vt 0.886079 0.626196
vt 0.866998 0.616474
vt 0.845847 0.613124
vt 0.824696 0.616474
vt 0.805616 0.626196
vt 0.790473 0.641338
vt 0.780751 0.660419
vt 0.777401 0.681570
vt 0.780751 0.702721
vt 0.790473 0.721801
vt 0.805616 0.736944
vt 0.824696 0.746666
vt 0.845847 0.750016
vt 0.866998 0.746666
vt 0.886079 0.736944
vt 0.901221 0.721801
vt 0.910943 0.702721
vt 0.914293 0.681570
vt 0.709137 0.604422
vt 0.722808 0.604422
vt 0.736479 0.604422
vt 0.750150 0.604422
vt 0.763821 0.604422
vt 0.777492 0.604422
vt 0.791163 0.604422
vt 0.804834 0.604422
vt 0.818505 0.604422
vt 0.832176 0.604422
vt 0.845847 0.604422
vt 0.859518 0.604422
vt 0.873189 0.604422
vt 0.886860 0.604422
vt 0.900531 0.604422
vt 0.914202 0.604422
vt 0.927873 0.604422
vt 0.941544 0.604422
vt 0.955215 0.604422
vt 0.968886 0.604422
vt 0.982557 0.604422
vt 0.845847 0.877842
vt 0.910943 0.660419
vt 0.914293 0.681570
vt 0.910943 0.702721
vt 0.901221 0.721801
vt 0.886079 0.736944
vt 0.866998 0.746666
vt 0.845847 0.750016
vt 0.824696 0.746666
vt 0.805616 0.736944
vt 0.790473 0.721801
vt 0.780751 0.702721
vt 0.777401 0.681570
vt 0.780751 0.660419
vt 0.790473 0.641338
vt 0.805616 0.626196
vt 0.824696 0.616474
vt 0.845847 0.613124
vt 0.866998 0.616474
vt 0.886079 0.626196
vt 0.901221 0.641338
vt 0.709137 0.604422
vt 0.722808 0.604422
vt 0.845847 0.877842
vt 0.736479 0.604422
vt 0.750150 0.604422
vt 0.763821 0.604422
vt 0.777492 0.604422
vt 0.791163 0.604422
vt 0.804834 0.604422
vt 0.818505 0.604422
vt 0.832176 0.604422
vt 0.845847 0.604422
vt 0.859518 0.604422
vt 0.873189 0.604422
vt 0.886860 0.604422
vt 0.900531 0.604422
vt 0.914202 0.604422
vt 0.927873 0.604422
vt 0.941544 0.604422
vt 0.955215 0.604422
vt 0.968886 0.604422
vt 0.982557 0.604422
vt 0.103052 0.318412
vt 0.115552 0.318412
vt 0.115552 0.694352
vt 0.103052 0.694352
vt 0.128052 0.318412
vt 0.128052 0.694352
vt 0.140552 0.318412
vt 0.140552 0.694352
vt 0.153052 0.318412
vt 0.153052 0.694352
vt 0.165552 0.318412
vt 0.165552 0.694352
vt 0.178052 0.318412
vt 0.178052 0.694352
vt 0.190552 0.318412
vt 0.190552 0.694352
vt 0.203052 0.318412
vt 0.203052 0.694352
vt 0.215552 0.318412
vt 0.215552 0.694352
vt 0.228052 0.318412
vt 0.228052 0.694352
vt 0.240552 0.318412
vt 0.240552 0.694352
vt 0.253052 0.318412
vt 0.253052 0.694352
vt 0.265552 0.318412
vt 0.265552 0.694352
vt 0.278052 0.318412
vt 0.278052 0.694352
vt 0.290552 0.318412
vt 0.290552 0.694352
vt 0.303052 0.318412
vt 0.303052 0.694352
vt 0.315552 0.318412
vt 0.315552 0.694352
vt 0.328052 0.318412
vt 0.328052 0.694352
vt 0.340552 0.318412
vt 0.340552 0.694352
vt 0.353052 0.318412
vt 0.353052 0.694352
vt 0.306725 0.459718
vt 0.320537 0.486827
vt 0.228052 0.512987
vt 0.285211 0.438204
vt 0.258102 0.424392
vt 0.228052 0.419632
vt 0.198001 0.424392
vt 0.170893 0.438204
vt 0.149379 0.459718
vt 0.135566 0.486827
vt 0.130807 0.516877
vt 0.135566 0.546927
vt 0.149379 0.574036
vt 0.170893 0.595550
vt 0.198001 0.609362
vt 0.228052 0.614122
vt 0.258102 0.609362
vt 0.285211 0.595550
vt 0.306725 0.574036
vt 0.320537 0.546927
vt 0.325297 0.516877
vt 0.329039 0.546530
vt 0.314840 0.574398
vt 0.233964 0.511640
vt 0.292724 0.596515
vt 0.264856 0.610714
vt 0.233964 0.615607
vt 0.203072 0.610714
vt 0.175204 0.596515
vt 0.153088 0.574398
vt 0.138888 0.546530
vt 0.133995 0.515639
vt 0.138888 0.484747
vt 0.153088 0.456879
vt 0.175204 0.434763
vt 0.203072 0.420563
vt 0.233964 0.415670
vt 0.264856 0.420563
vt 0.292724 0.434763
vt 0.314840 0.456879
vt 0.329039 0.484747
vt 0.333932 0.515639
vn 0.000000 -1.000000 -0.000003
vn 0.000000 -1.000000 0.000001
vn 0.000000 -1.000000 0.000000
vn 0.000000 -1.000000 -0.000000
vn 0.000000 -1.000000 -0.000000
vn 0.000000 -1.000000 -0.000000
vn 0.000000 -1.000000 -0.000000
vn 0.000000 -1.000000 0.000000
vn 0.000000 -1.000000 0.000000
vn 0.000000 -1.000000 0.000000
vn 0.000000 -1.000000 0.000001
vn 0.000000 -1.000000 0.000000
vn 0.000000 -1.000000 -0.000000
vn 0.000000 -1.000000 0.000001
vn 0.000000 -1.000000 0.000000
vn 0.000000 -1.000000 0.000000
vn 0.000000 -1.000000 0.000000
vn 0.000000 -1.000000 0.000000
vn 0.000000 -1.000000 0.000000
vn 0.000000 -1.000000 0.000006
vn 0.696589 0.680835 -0.226335
vn 0.592554 0.680835 -0.430516
vn -0.000000 1.000000 0.000001
vn 0.430516 0.680835 -0.592554
vn 0.226335 0.680835 -0.696589
vn -0.000000 0.680835 -0.732437
vn -0.226336 0.680835 -0.696589
vn -0.430516 0.680835 -0.592554
vn -0.592554 0.680835 -0.430515
vn -0.696589 0.680835 -0.226336
vn -0.732437 0.680835 0.000000
vn -0.696589 0.680835 0.226336
vn -0.592554 0.680835 0.430515
vn -0.430515 0.680835 0.592554
vn -0.226336 0.680835 0.696589
vn 0.000000 0.680835 0.732437
vn 0.226336 0.680835 0.696589
vn 0.430516 0.680835 0.592554
vn 0.592554 0.680835 0.430516
vn 0.696589 0.680835 0.226336
vn 0.732437 0.680835 0.000001
vn 0.000000 -1.000000 0.000000
vn 0.000000 -1.000000 0.000000
vn 0.000000 -1.000000 0.000000
vn 0.000000 -1.000000 0.000000
vn 0.000000 -1.000000 -0.000000
vn 0.000000 -1.000000 -0.000000
vn 0.000000 -1.000000 0.000000
vn 0.000000 -1.000000 0.000000
vn 0.000000 -1.000000 -0.000000
vn 0.000000 -1.000000 -0.000000
vn 0.000000 -1.000000 0.000001
vn 0.000000 -1.000000 0.000000
vn 0.000000 -1.000000 -0.000000
vn 0.000000 -1.000000 0.000001
vn 0.000000 -1.000000 0.000000
vn 0.000000 -1.000000 0.000000
vn 0.000000 -1.000000 0.000001
vn 0.000000 -1.000000 -0.000002
vn 0.000000 -1.000000 0.000000
vn 0.000000 -1.000000 0.000000
vn 0.696589 0.680835 -0.226334
vn 0.592554 0.680835 -0.430516
vn -0.000000 1.000000 0.000001
vn 0.430515 0.680835 -0.592554
vn 0.226335 0.680835 -0.696589
vn -0.000000 0.680835 -0.732437
vn -0.226335 0.680835 -0.696589
vn -0.430516 0.680835 -0.592553
vn -0.592554 0.680835 -0.430515
vn -0.696589 0.680835 -0.226336
vn -0.732437 0.680835 0.000000
vn -0.696589 0.680835 0.226336
vn -0.592554 0.680835 0.430516
vn -0.430515 0.680835 0.592554
vn -0.226336 0.680835 0.696589
vn 0.000000 0.680835 0.732437
vn 0.226336 0.680835 0.696589
vn 0.430515 0.680835 0.592554
vn 0.592554 0.680835 0.430516
vn 0.696589 0.680835 0.226336
vn 0.732437 0.680835 0.000001
vn 0.951057 0.000000 -0.309016
vn 0.809017 0.000000 -0.587785
vn 0.951057 0.000000 -0.309016
vn 0.809017 0.000000 -0.587786
vn 0.587786 0.000000 -0.809017
vn 0.587786 0.000000 -0.809017
vn 0.309016 0.000000 -0.951057
vn 0.309015 0.000000 -0.951057
vn 0.000000 0.000000 -1.000000
vn -0.000000 0.000000 -1.000000
vn -0.309015 0.000000 -0.951057
vn -0.309016 0.000000 -0.951057
vn -0.587786 0.000000 -0.809016
vn -0.587786 0.000000 -0.809016
vn -0.809018 0.000000 -0.587784
vn -0.809018 0.000000 -0.587784
vn -0.951057 0.000000 -0.309017
vn -0.951057 0.000000 -0.309017
vn -1.000000 0.000000 -0.000000
vn -1.000000 0.000000 0.000000
vn -0.951057 0.000000 0.309017
vn -0.951057 0.000000 0.309017
vn -0.809017 0.000000 0.587785
vn -0.809017 0.000000 0.587786
vn -0.587785 0.000000 0.809018
vn -0.587784 0.000000 0.809018
vn -0.309018 0.000000 0.951056
vn -0.309018 0.000000 0.951056
vn -0.000000 0.000000 1.000000
vn 0.000000 0.000000 1.000000
vn 0.309018 0.000000 0.951056
vn 0.309018 0.000000 0.951056
vn 0.587784 0.000000 0.809018
vn 0.587785 0.000000 0.809017
vn 0.809017 0.000000 0.587785
vn 0.809017 0.000000 0.587785
vn 0.951057 0.000000 0.309017
vn 0.951057 0.000000 0.309017
vn 1.000000 0.000000 0.000001
vn 1.000000 0.000000 0.000001
vn 0.000000 -1.000000 0.000000
vn 0.000000 -1.000000 0.000000
vn 0.000000 -1.000000 0.000000
vn 0.000000 -1.000000 0.000000
vn 0.000000 -1.000000 0.000000
vn 0.000000 -1.000000 0.000000
vn 0.000000 -1.000000 0.000000
vn 0.000000 -1.000000 0.000000
vn 0.000000 -1.000000 0.000000
vn 0.000000 -1.000000 0.000000
vn 0.000000 -1.000000 0.000000
vn 0.000000 -1.000000 0.000000
vn 0.000000 -1.000000 0.000000
vn 0.000000 -1.000000 0.000000
vn 0.000000 -1.000000 0.000000
vn 0.000000 -1.000000 0.000000
vn 0.000000 -1.000000 0.000000
vn 0.000000 -1.000000 0.000000
vn 0.000000 -1.000000 0.000000
vn 0.000000 -1.000000 0.000000
vn 0.000000 -1.000000 0.000000
vn 0.000000 1.000000 0.000000
vn 0.000000 1.000000 0.000002
vn 0.000000 1.000000 0.000001
vn 0.000000 1.000000 0.000002
vn 0.000000 1.000000 0.000000
vn 0.000000 1.000000 0.000000
vn 0.000000 1.000000 0.000000
vn 0.000000 1.000000 0.000000
vn 0.000000 1.000000 0.000002
vn 0.000000 1.000000 -0.000002
vn 0.000000 1.000000 0.000000
vn 0.000000 1.000000 0.000004
vn 0.000000 1.000000 0.000000
vn 0.000000 1.000000 0.000000
vn 0.000000 1.000000 0.000000
vn 0.000000 1.000000 0.000001
vn 0.000000 1.000000 0.000000
vn 0.000000 1.000000 -0.000001
vn 0.000000 1.000000 0.000002
vn 0.000000 1.000000 0.000002
vn 0.000000 1.000000 0.000000
s 1
g pasted__pCone3 group8
usemtl blinn7SG
f 1/1/1 20/20/2 2/2/3
f 20/20/2 19/19/4 2/2/3
f 19/19/4 18/18/5 2/2/3
f 18/18/5 17/17/6 2/2/3
f 17/17/6 16/16/7 2/2/3
f 16/16/7 15/15/8 2/2/3
f 15/15/8 14/14/9 2/2/3
f 14/14/9 13/13/10 2/2/3
f 13/13/10 12/12/11 2/2/3
f 12/12/11 11/11/12 2/2/3
f 11/11/12 10/10/13 2/2/3
f 10/10/13 9/9/14 2/2/3
f 9/9/14 8/8/15 2/2/3
f 8/8/15 7/7/16 2/2/3
f 7/7/16 6/6/17 2/2/3
f 6/6/17 5/5/18 2/2/3
f 5/5/18 4/4/19 2/2/3
f 4/4/19 3/3/20 2/2/3
s 2
f 1/21/21 2/22/22 21/42/23
f 2/22/22 3/23/24 21/42/23
f 3/23/24 4/24/25 21/42/23
f 4/24/25 5/25/26 21/42/23
f 5/25/26 6/26/27 21/42/23
f 6/26/27 7/27/28 21/42/23
f 7/27/28 8/28/29 21/42/23
f 8/28/29 9/29/30 21/42/23
f 9/29/30 10/30/31 21/42/23
f 10/30/31 11/31/32 21/42/23
f 11/31/32 12/32/33 21/42/23
f 12/32/33 13/33/34 21/42/23
f 13/33/34 14/34/35 21/42/23
f 14/34/35 15/35/36 21/42/23
f 15/35/36 16/36/37 21/42/23
f 16/36/37 17/37/38 21/42/23
f 17/37/38 18/38/39 21/42/23
f 18/38/39 19/39/40 21/42/23
f 19/39/40 20/40/41 21/42/23
f 20/40/41 1/41/21 21/42/23
s 3
f 22/43/42 41/44/43 23/62/44
f 41/44/43 40/45/45 23/62/44
f 40/45/45 39/46/46 23/62/44
f 39/46/46 38/47/47 23/62/44
f 38/47/47 37/48/48 23/62/44
f 37/48/48 36/49/49 23/62/44
f 36/49/49 35/50/50 23/62/44
f 35/50/50 34/51/51 23/62/44
f 34/51/51 33/52/52 23/62/44
f 33/52/52 32/53/53 23/62/44
f 32/53/53 31/54/54 23/62/44
f 31/54/54 30/55/55 23/62/44
f 30/55/55 29/56/56 23/62/44
f 29/56/56 28/57/57 23/62/44
f 28/57/57 27/58/58 23/62/44
f 27/58/58 26/59/59 23/62/44
f 26/59/59 25/60/60 23/62/44
f 25/60/60 24/61/61 23/62/44
s 4
f 22/63/62 23/64/63 42/65/64
f 23/64/63 24/66/65 42/65/64
f 24/66/65 25/67/66 42/65/64
f 25/67/66 26/68/67 42/65/64
f 26/68/67 27/69/68 42/65/64
f 27/69/68 28/70/69 42/65/64
f 28/70/69 29/71/70 42/65/64
f 29/71/70 30/72/71 42/65/64
f 30/72/71 31/73/72 42/65/64
f 31/73/72 32/74/73 42/65/64
f 32/74/73 33/75/74 42/65/64
f 33/75/74 34/76/75 42/65/64
f 34/76/75 35/77/76 42/65/64
f 35/77/76 36/78/77 42/65/64
f 36/78/77 37/79/78 42/65/64
f 37/79/78 38/80/79 42/65/64
f 38/80/79 39/81/80 42/65/64
f 39/81/80 40/82/81 42/65/64
f 40/82/81 41/83/82 42/65/64
f 41/83/82 22/84/62 42/65/64
s 5
f 43/85/83 44/86/84 63/88/85
f 63/88/85 44/86/84 64/87/86
f 44/86/84 45/89/87 64/87/86
f 64/87/86 45/89/87 65/90/88
f 45/89/87 46/91/89 65/90/88
f 65/90/88 46/91/89 66/92/90
f 46/91/89 47/93/91 66/92/90
f 66/92/90 47/93/91 67/94/92
f 47/93/91 48/95/93 67/94/92
f 67/94/92 48/95/93 68/96/94
f 48/95/93 49/97/95 68/96/94
f 68/96/94 49/97/95 69/98/96
f 49/97/95 50/99/97 69/98/96
f 69/98/96 50/99/97 70/100/98
f 50/99/97 51/101/99 70/100/98
f 70/100/98 51/101/99 71/102/100
f 51/101/99 52/103/101 71/102/100
f 71/102/100 52/103/101 72/104/102
f 52/103/101 53/105/103 72/104/102
f 72/104/102 53/105/103 73/106/104
f 53/105/103 54/107/105 73/106/104
f 73/106/104 54/107/105 74/108/106
f 54/107/105 55/109/107 74/108/106
f 74/108/106 55/109/107 75/110/108
f 55/109/107 56/111/109 75/110/108
f 75/110/108 56/111/109 76/112/110
f 56/111/109 57/113/111 76/112/110
f 76/112/110 57/113/111 77/114/112
f 57/113/111 58/115/113 77/114/112
f 77/114/112 58/115/113 78/116/114
f 58/115/113 59/117/115 78/116/114
f 78/116/114 59/117/115 79/118/116
f 59/117/115 60/119/117 79/118/116
f 79/118/116 60/119/117 80/120/118
f 60/119/117 61/121/119 80/120/118
f 80/120/118 61/121/119 81/122/120
f 61/121/119 62/123/121 81/122/120
f 81/122/120 62/123/121 82/124/122
f 62/123/121 43/125/83 82/124/122
f 82/124/122 43/125/83 63/126/85
s 6
f 44/127/123 43/128/124 83/129/125
f 45/130/126 44/127/123 83/129/125
f 46/131/127 45/130/126 83/129/125
f 47/132/128 46/131/127 83/129/125
f 48/133/129 47/132/128 83/129/125
f 49/134/130 48/133/129 83/129/125
f 50/135/131 49/134/130 83/129/125
f 51/136/132 50/135/131 83/129/125
f 52/137/133 51/136/132 83/129/125
f 53/138/134 52/137/133 83/129/125
f 54/139/135 53/138/134 83/129/125
f 55/140/136 54/139/135 83/129/125
f 56/141/137 55/140/136 83/129/125
f 57/142/138 56/141/137 83/129/125
f 58/143/139 57/142/138 83/129/125
f 59/144/140 58/143/139 83/129/125
f 60/145/141 59/144/140 83/129/125
f 61/146/142 60/145/141 83/129/125
f 62/147/143 61/146/142 83/129/125
f 43/128/124 62/147/143 83/129/125
s 7
f 63/148/144 64/149/145 84/150/146
f 64/149/145 65/151/147 84/150/146
f 65/151/147 66/152/148 84/150/146
f 66/152/148 67/153/149 84/150/146
f 67/153/149 68/154/150 84/150/146
f 68/154/150 69/155/151 84/150/146
f 69/155/151 70/156/152 84/150/146
f 70/156/152 71/157/153 84/150/146
f 71/157/153 72/158/154 84/150/146
f 72/158/154 73/159/155 84/150/146
f 73/159/155 74/160/156 84/150/146
f 74/160/156 75/161/157 84/150/146
f 75/161/157 76/162/158 84/150/146
f 76/162/158 77/163/159 84/150/146
f 77/163/159 78/164/160 84/150/146
f 78/164/160 79/165/161 84/150/146
f 79/165/161 80/166/162 84/150/146
f 80/166/162 81/167/163 84/150/146
f 81/167/163 82/168/164 84/150/146
f 82/168/164 63/148/144 84/150/146
